<svg width="100" height="100" viewBox="0 0 100 100" fill="none" xmlns="http://www.w3.org/2000/svg">
<path d="M16.6666 83.3334C14.375 83.3334 12.4139 82.5181 10.7833 80.8875C9.15276 79.257 8.33609 77.2945 8.33331 75V25C8.33331 22.7084 9.14998 20.7472 10.7833 19.1167C12.4166 17.4861 14.3778 16.6695 16.6666 16.6667H83.3333C85.625 16.6667 87.5875 17.4834 89.2208 19.1167C90.8541 20.75 91.6694 22.7111 91.6666 25V75C91.6666 77.2917 90.8514 79.2542 89.2208 80.8875C87.5903 82.5209 85.6278 83.3361 83.3333 83.3334H16.6666ZM50 54.1667L83.3333 33.3334V25L50 45.8334L16.6666 25V33.3334L50 54.1667Z" fill="#F8F8F8"/>
</svg>
