<svg width="118" height="136" viewBox="0 0 118 136" fill="none" xmlns="http://www.w3.org/2000/svg">
    <path d="M16.7331 79.4161C13.3791 80.4221 11.4751 83.9571 12.4811 87.3121L19.2471 109.868C20.2531 113.222 23.7881 115.126 27.1431 114.12C30.4971 113.114 32.4011 109.579 31.3951 106.224L24.6291 83.6682C23.6231 80.3132 20.0881 78.4101 16.7331 79.4161Z" fill="#DDC2B5"/>
    <path d="M25.319 115.888C25.318 115.888 25.318 115.888 25.319 115.888C21.884 115.888 18.797 113.589 17.81 110.298L11.044 87.7421C9.802 83.6001 12.16 79.2211 16.302 77.9791C17.036 77.7581 17.796 77.6461 18.558 77.6461C21.991 77.6461 25.079 79.9451 26.065 83.2371L32.831 105.793C33.433 107.799 33.218 109.919 32.225 111.764C31.232 113.608 29.58 114.955 27.574 115.556C26.839 115.777 26.08 115.888 25.319 115.888ZM18.558 80.6471C18.088 80.6471 17.62 80.7161 17.165 80.8531C14.607 81.6201 13.151 84.3241 13.918 86.8811L20.684 109.437C21.293 111.469 23.2 112.888 25.319 112.888C25.788 112.888 26.258 112.819 26.713 112.683C27.951 112.311 28.972 111.48 29.584 110.341C30.197 109.202 30.33 107.894 29.959 106.655L23.193 84.0981C22.583 82.0671 20.676 80.6471 18.558 80.6471Z" fill="black"/>
    <path d="M111.557 97.1031C111.146 97.1961 110.552 97.3561 109.798 97.5581C105.577 98.6911 97.719 100.798 83.463 99.2141C83.232 99.1891 83.009 99.1101 82.814 98.9831C82.578 98.8301 82.331 98.6801 82.076 98.5321C75.643 94.8151 67.588 95.0761 61.054 99.2181L57.343 101.57C57.118 101.712 56.86 101.793 56.594 101.802L40.703 102.371C39.047 102.34 37.747 102.816 36.855 103.72C36.148 104.437 35.718 105.428 35.705 106.372C35.698 106.892 35.748 107.374 35.853 107.816C35.896 107.921 35.926 108.032 35.943 108.145C36.503 109.919 38.019 110.95 40.238 110.981L54.582 111.184H70.355C71.184 111.184 71.855 111.855 71.855 112.684C71.855 113.513 71.184 114.184 70.355 114.184H54.561L40.195 113.981C36.802 113.933 34.264 112.207 33.222 109.457L23.939 105.169C23.624 105.023 23.37 104.773 23.218 104.462L11.83 80.9841C11.398 80.0391 10.566 79.3041 9.53503 78.9351C8.70403 78.6381 7.36903 78.4441 5.72203 79.1971C3.03803 80.4241 2.67803 82.8341 3.51003 84.6781L15.874 111.691L42.031 126.67C45.187 128.477 48.298 130.194 51.655 131.344C54.022 132.154 56.561 132.477 59.646 132.711C66.893 133.261 73.86 132.312 81.234 131.305C83.76 130.96 86.372 130.604 88.967 130.319C95.03 129.655 104.292 129.931 108.522 130.622C111.417 131.092 112.947 126.698 113.601 124.033C116.251 113.242 113.758 97.8301 111.557 97.1031Z" fill="#DDC2B5"/>
    <path d="M114.548 95.9501C113.251 94.0481 111.784 94.0141 111.029 94.1611C110.468 94.2711 109.83 94.4421 109.021 94.6591C105.024 95.7311 97.614 97.7191 84.137 96.2691C83.955 96.1561 83.7681 96.0441 83.5781 95.9341C76.1761 91.6561 66.9301 91.9421 59.4491 96.6831L56.0811 98.8171L40.6721 99.3711C37.6301 99.3431 35.7521 100.566 34.7191 101.613C33.5631 102.785 32.8501 104.336 32.7251 105.92L25.6861 102.669L14.5461 79.7051C13.7941 78.0591 12.3351 76.7491 10.5461 76.1091C8.63205 75.4261 6.47705 75.5531 4.47705 76.4681C0.652053 78.2161 -0.902946 82.1881 0.782053 85.9191L13.3501 113.377C13.4801 113.662 13.6971 113.899 13.9681 114.054L40.5431 129.272C43.6991 131.079 47.0821 132.946 50.6861 134.181C53.6521 135.197 56.7501 135.499 59.4211 135.702C60.9451 135.818 62.4641 135.869 63.9771 135.869C69.9781 135.869 75.8891 135.062 81.6421 134.278C84.149 133.936 86.7411 133.582 89.2971 133.301C95.034 132.671 104.084 132.936 108.041 133.583C109.778 133.867 112.272 133.532 114.313 130.327C119.459 122.249 118.25 101.38 114.548 95.9501ZM108.525 130.622C104.295 129.931 95.0331 129.655 88.9701 130.319C86.3751 130.604 83.7631 130.961 81.2371 131.305C73.8631 132.311 66.8961 133.261 59.6491 132.711C56.5651 132.477 54.0251 132.154 51.6581 131.344C48.3011 130.194 45.1901 128.477 42.0341 126.67L15.8771 111.69L3.51306 84.6771C2.68106 82.8331 3.04105 80.4231 5.72505 79.1961C7.37105 78.4431 8.70606 78.6371 9.53806 78.9341C10.5691 79.3031 11.4011 80.0381 11.8331 80.9831L23.2211 104.461C23.3721 104.773 23.6271 105.023 23.9421 105.168L33.2251 109.456C34.2671 112.206 36.8051 113.932 40.1981 113.98L54.5641 114.183H70.3581C71.1871 114.183 71.8581 113.512 71.8581 112.683C71.8581 111.854 71.1871 111.183 70.3581 111.183H54.5851L40.2411 110.98C38.0221 110.949 36.5061 109.918 35.9461 108.144C35.9281 108.031 35.8981 107.921 35.8561 107.815C35.7511 107.374 35.7001 106.891 35.7081 106.371C35.7211 105.428 36.1511 104.436 36.8581 103.719C37.7501 102.815 39.0501 102.339 40.7061 102.37L56.5971 101.801C56.8631 101.792 57.1211 101.711 57.3461 101.569L61.0571 99.2171C67.5911 95.0751 75.646 94.8141 82.079 98.5311C82.334 98.6791 82.5801 98.8291 82.8171 98.9821C83.0121 99.1091 83.2341 99.1881 83.4661 99.2131C97.7221 100.797 105.581 98.6901 109.801 97.5571C110.554 97.3551 111.149 97.1951 111.56 97.1021C113.761 97.8291 116.254 113.241 113.607 124.032C112.95 126.697 111.42 131.092 108.525 130.622Z" fill="black"/>
    <path d="M88.3381 35.8201C87.5101 35.8201 86.8381 35.1481 86.8381 34.3201V29.3821C86.8381 27.6561 85.6971 26.2531 84.2961 26.2531H33.5701C32.1691 26.2531 31.0281 27.6561 31.0281 29.3821V34.3201C31.0281 35.1481 30.3561 35.8201 29.5281 35.8201C28.7001 35.8201 28.0281 35.1481 28.0281 34.3201V29.3821C28.0281 26.0021 30.5141 23.2531 33.5701 23.2531H84.2961C87.3521 23.2531 89.8381 26.0021 89.8381 29.3821V34.3201C89.8381 35.1481 89.1661 35.8201 88.3381 35.8201Z" fill="black"/>
    <path d="M58.9321 35.8201C58.1041 35.8201 57.4321 35.1481 57.4321 34.3201V16.0731C57.4321 15.2451 58.1041 14.5731 58.9321 14.5731C59.7601 14.5731 60.4321 15.2451 60.4321 16.0731V34.3201C60.4321 35.1481 59.7601 35.8201 58.9321 35.8201Z" fill="black"/>
    <path d="M66.9781 16.9491H50.8871C48.5371 16.9491 46.6321 15.0441 46.6321 12.6941V6.52112C46.6321 4.17112 48.5371 2.26611 50.8871 2.26611H66.9781C69.3281 2.26611 71.2331 4.17112 71.2331 6.52112V12.6941C71.2331 15.0441 69.3281 16.9491 66.9781 16.9491Z" fill="#6A9B31"/>
    <path d="M66.9781 18.4491H50.8871C47.7141 18.4491 45.1321 15.8671 45.1321 12.6941V6.52014C45.1321 3.34714 47.7141 0.765137 50.8871 0.765137H66.9781C70.1511 0.765137 72.7331 3.34714 72.7331 6.52014V12.6941C72.7331 15.8671 70.1511 18.4491 66.9781 18.4491ZM50.8871 3.76514C49.3671 3.76514 48.1321 5.00014 48.1321 6.52014V12.6941C48.1321 14.2131 49.3671 15.4491 50.8871 15.4491H66.9781C68.4981 15.4491 69.7331 14.2141 69.7331 12.6941V6.52014C69.7331 5.00114 68.4981 3.76514 66.9781 3.76514H50.8871Z" fill="black"/>
    <path d="M69.8942 66.3071H47.9712V55.8351C47.9712 50.0601 52.6532 45.3781 58.4282 45.3781H59.4362C65.2112 45.3781 69.8932 50.0601 69.8932 55.8351L69.8942 66.3071Z" fill="#DEF4C4"/>
    <path d="M69.8942 67.8071H47.9712C47.1432 67.8071 46.4712 67.1351 46.4712 66.3071V55.8351C46.4712 49.2411 51.8352 43.8771 58.4282 43.8771H59.4372C66.0302 43.8771 71.3942 49.2411 71.3942 55.8351V66.3071C71.3942 67.1351 70.7222 67.8071 69.8942 67.8071ZM49.4712 64.8071H68.3942V55.8351C68.3942 50.8961 64.3752 46.8771 59.4372 46.8771H58.4282C53.4902 46.8771 49.4712 50.8961 49.4712 55.8351V64.8071Z" fill="black"/>
    <path d="M59.2131 50.5351H58.6521C55.4551 50.5351 52.8381 47.9191 52.8381 44.7211V40.1331C52.8381 36.9351 55.4541 34.3191 58.6521 34.3191H59.2131C62.4101 34.3191 65.0261 36.9351 65.0261 40.1331V44.7211C65.0271 47.9191 62.4111 50.5351 59.2131 50.5351Z" fill="#6A9B31"/>
    <path d="M59.2131 52.0361H58.6521C54.6201 52.0361 51.3391 48.7551 51.3391 44.7221V40.1341C51.3391 36.1021 54.6201 32.8211 58.6521 32.8211H59.2131C63.2451 32.8211 66.5261 36.1021 66.5261 40.1341V44.7221C66.5261 48.7541 63.2451 52.0361 59.2131 52.0361ZM58.6521 35.8201C56.2731 35.8201 54.3391 37.7551 54.3391 40.1331V44.7211C54.3391 47.1001 56.2741 49.0351 58.6521 49.0351H59.2131C61.5921 49.0351 63.5261 47.0991 63.5261 44.7211V40.1331C63.5261 37.7541 61.5911 35.8201 59.2131 35.8201H58.6521Z" fill="black"/>
    <path d="M99.2992 66.3071H77.3762V55.8351C77.3762 50.0601 82.0582 45.3781 87.8332 45.3781H88.8422C94.6172 45.3781 99.2992 50.0601 99.2992 55.8351V66.3071Z" fill="#DEF4C4"/>
    <path d="M99.2992 67.8071H77.3762C76.5482 67.8071 75.8762 67.1351 75.8762 66.3071V55.8351C75.8762 49.2411 81.2402 43.8771 87.8332 43.8771H88.8422C95.4352 43.8771 100.799 49.2411 100.799 55.8351V66.3071C100.799 67.1351 100.127 67.8071 99.2992 67.8071ZM78.8762 64.8071H97.7992V55.8351C97.7992 50.8961 93.7802 46.8771 88.8422 46.8771H87.8332C82.8952 46.8771 78.8762 50.8961 78.8762 55.8351V64.8071Z" fill="black"/>
    <path d="M88.6182 50.5351H88.0572C84.8602 50.5351 82.2432 47.9191 82.2432 44.7211V40.1331C82.2432 36.9351 84.8592 34.3191 88.0572 34.3191H88.6182C91.8152 34.3191 94.4322 36.9351 94.4322 40.1331V44.7211C94.4312 47.9191 91.8152 50.5351 88.6182 50.5351Z" fill="#6A9B31"/>
    <path d="M88.6182 52.0361H88.0572C84.0252 52.0361 80.7432 48.7551 80.7432 44.7221V40.1341C80.7432 36.1021 84.0242 32.8211 88.0572 32.8211H88.6182C92.6502 32.8211 95.9312 36.1021 95.9312 40.1341V44.7221C95.9312 48.7541 92.6502 52.0361 88.6182 52.0361ZM88.0572 35.8201C85.6782 35.8201 83.7432 37.7551 83.7432 40.1331V44.7211C83.7432 47.1001 85.6782 49.0351 88.0572 49.0351H88.6182C90.9972 49.0351 92.9312 47.0991 92.9312 44.7211V40.1331C92.9312 37.7541 90.9962 35.8201 88.6182 35.8201H88.0572Z" fill="black"/>
    <path d="M40.4902 66.3071H18.5662V55.8351C18.5662 50.0601 23.2482 45.3781 29.0232 45.3781H30.0312C35.8062 45.3781 40.4882 50.0601 40.4882 55.8351V66.3071H40.4902Z" fill="#DEF4C4"/>
    <path d="M40.4902 67.8071H18.5662C17.7382 67.8071 17.0662 67.1351 17.0662 66.3071V55.8351C17.0662 49.2411 22.4302 43.8771 29.0242 43.8771H30.0322C36.6262 43.8771 41.9902 49.2411 41.9902 55.8351V66.3071C41.9902 67.1351 41.3182 67.8071 40.4902 67.8071ZM20.0662 64.8071H38.9902V55.8351C38.9902 50.8961 34.9712 46.8771 30.0322 46.8771H29.0242C24.0852 46.8771 20.0662 50.8961 20.0662 55.8351V64.8071Z" fill="black"/>
    <path d="M29.8091 50.5351H29.2481C26.0511 50.5351 23.4351 47.9191 23.4351 44.7211V40.1331C23.4351 36.9351 26.0511 34.3191 29.2481 34.3191H29.8091C33.0061 34.3191 35.6221 36.9351 35.6221 40.1331V44.7211C35.6221 47.9191 33.0061 50.5351 29.8091 50.5351Z" fill="#6A9B31"/>
    <path d="M29.8081 52.0361H29.2481C25.2161 52.0361 21.9351 48.7551 21.9351 44.7221V40.1341C21.9351 36.1021 25.2161 32.8211 29.2481 32.8211H29.8081C33.8401 32.8211 37.1221 36.1021 37.1221 40.1341V44.7221C37.1221 48.7541 33.8411 52.0361 29.8081 52.0361ZM29.2481 35.8201C26.8691 35.8201 24.9351 37.7551 24.9351 40.1331V44.7211C24.9351 47.1001 26.8701 49.0351 29.2481 49.0351H29.8081C32.1871 49.0351 34.1221 47.0991 34.1221 44.7211V40.1331C34.1221 37.7541 32.1871 35.8201 29.8081 35.8201H29.2481Z" fill="black"/>
    <path d="M16.7331 79.4161C13.3791 80.4221 11.4751 83.9571 12.4811 87.3121L19.2471 109.868C20.2531 113.222 23.7881 115.126 27.1431 114.12C30.4971 113.114 32.4011 109.579 31.3951 106.224L24.6291 83.6682C23.6231 80.3132 20.0881 78.4101 16.7331 79.4161Z" fill="#DDC2B5"/>
    <path d="M25.319 115.888C25.318 115.888 25.318 115.888 25.319 115.888C21.884 115.888 18.797 113.589 17.81 110.298L11.044 87.7421C9.802 83.6001 12.16 79.2211 16.302 77.9791C17.036 77.7581 17.796 77.6461 18.558 77.6461C21.991 77.6461 25.079 79.9451 26.065 83.2371L32.831 105.793C33.433 107.799 33.218 109.919 32.225 111.764C31.232 113.608 29.58 114.955 27.574 115.556C26.839 115.777 26.08 115.888 25.319 115.888ZM18.558 80.6471C18.088 80.6471 17.62 80.7161 17.165 80.8531C14.607 81.6201 13.151 84.3241 13.918 86.8811L20.684 109.437C21.293 111.469 23.2 112.888 25.319 112.888C25.788 112.888 26.258 112.819 26.713 112.683C27.951 112.311 28.972 111.48 29.584 110.341C30.197 109.202 30.33 107.894 29.959 106.655L23.193 84.0981C22.583 82.0671 20.676 80.6471 18.558 80.6471Z" fill="black"/>
    <path d="M111.557 97.1031C111.146 97.1961 110.552 97.3561 109.798 97.5581C105.577 98.6911 97.719 100.798 83.463 99.2141C83.232 99.1891 83.009 99.1101 82.814 98.9831C82.578 98.8301 82.331 98.6801 82.076 98.5321C75.643 94.8151 67.588 95.0761 61.054 99.2181L57.343 101.57C57.118 101.712 56.86 101.793 56.594 101.802L40.703 102.371C39.047 102.34 37.747 102.816 36.855 103.72C36.148 104.437 35.718 105.428 35.705 106.372C35.698 106.892 35.748 107.374 35.853 107.816C35.896 107.921 35.926 108.032 35.943 108.145C36.503 109.919 38.019 110.95 40.238 110.981L54.582 111.184H70.355C71.184 111.184 71.855 111.855 71.855 112.684C71.855 113.513 71.184 114.184 70.355 114.184H54.561L40.195 113.981C36.802 113.933 34.264 112.207 33.222 109.457L23.939 105.169C23.624 105.023 23.37 104.773 23.218 104.462L11.83 80.9841C11.398 80.0391 10.566 79.3041 9.53503 78.9351C8.70403 78.6381 7.36903 78.4441 5.72203 79.1971C3.03803 80.4241 2.67803 82.8341 3.51003 84.6781L15.874 111.691L42.031 126.67C45.187 128.477 48.298 130.194 51.655 131.344C54.022 132.154 56.561 132.477 59.646 132.711C66.893 133.261 73.86 132.312 81.234 131.305C83.76 130.96 86.372 130.604 88.967 130.319C95.03 129.655 104.292 129.931 108.522 130.622C111.417 131.092 112.947 126.698 113.601 124.033C116.251 113.242 113.758 97.8301 111.557 97.1031Z" fill="#DDC2B5"/>
    <path d="M114.548 95.9501C113.251 94.0481 111.784 94.0141 111.029 94.1611C110.468 94.2711 109.83 94.4421 109.021 94.6591C105.024 95.7311 97.614 97.7191 84.137 96.2691C83.955 96.1561 83.7681 96.0441 83.5781 95.9341C76.1761 91.6561 66.9301 91.9421 59.4491 96.6831L56.0811 98.8171L40.6721 99.3711C37.6301 99.3431 35.7521 100.566 34.7191 101.613C33.5631 102.785 32.8501 104.336 32.7251 105.92L25.6861 102.669L14.5461 79.7051C13.7941 78.0591 12.3351 76.7491 10.5461 76.1091C8.63205 75.4261 6.47705 75.5531 4.47705 76.4681C0.652053 78.2161 -0.902946 82.1881 0.782053 85.9191L13.3501 113.377C13.4801 113.662 13.6971 113.899 13.9681 114.054L40.5431 129.272C43.6991 131.079 47.0821 132.946 50.6861 134.181C53.6521 135.197 56.7501 135.499 59.4211 135.702C60.9451 135.818 62.4641 135.869 63.9771 135.869C69.9781 135.869 75.8891 135.062 81.6421 134.278C84.149 133.936 86.7411 133.582 89.2971 133.301C95.034 132.671 104.084 132.936 108.041 133.583C109.778 133.867 112.272 133.532 114.313 130.327C119.459 122.249 118.25 101.38 114.548 95.9501ZM108.525 130.622C104.295 129.931 95.0331 129.655 88.9701 130.319C86.3751 130.604 83.7631 130.961 81.2371 131.305C73.8631 132.311 66.8961 133.261 59.6491 132.711C56.5651 132.477 54.0251 132.154 51.6581 131.344C48.3011 130.194 45.1901 128.477 42.0341 126.67L15.8771 111.69L3.51306 84.6771C2.68106 82.8331 3.04105 80.4231 5.72505 79.1961C7.37105 78.4431 8.70606 78.6371 9.53806 78.9341C10.5691 79.3031 11.4011 80.0381 11.8331 80.9831L23.2211 104.461C23.3721 104.773 23.6271 105.023 23.9421 105.168L33.2251 109.456C34.2671 112.206 36.8051 113.932 40.1981 113.98L54.5641 114.183H70.3581C71.1871 114.183 71.8581 113.512 71.8581 112.683C71.8581 111.854 71.1871 111.183 70.3581 111.183H54.5851L40.2411 110.98C38.0221 110.949 36.5061 109.918 35.9461 108.144C35.9281 108.031 35.8981 107.921 35.8561 107.815C35.7511 107.374 35.7001 106.891 35.7081 106.371C35.7211 105.428 36.1511 104.436 36.8581 103.719C37.7501 102.815 39.0501 102.339 40.7061 102.37L56.5971 101.801C56.8631 101.792 57.1211 101.711 57.3461 101.569L61.0571 99.2171C67.5911 95.0751 75.646 94.8141 82.079 98.5311C82.334 98.6791 82.5801 98.8291 82.8171 98.9821C83.0121 99.1091 83.2341 99.1881 83.4661 99.2131C97.7221 100.797 105.581 98.6901 109.801 97.5571C110.554 97.3551 111.149 97.1951 111.56 97.1021C113.761 97.8291 116.254 113.241 113.607 124.032C112.95 126.697 111.42 131.092 108.525 130.622Z" fill="black"/>
    </svg>
    