<svg width="213" height="212" viewBox="0 0 213 212" fill="none" xmlns="http://www.w3.org/2000/svg">
<rect width="213" height="212" rx="106" fill="white"/>
<path d="M15.8022 104.097C15.8022 96.6204 17.2044 89.6423 20.0087 83.1625C22.8129 76.6375 26.9063 70.9735 32.2887 66.1704C37.6711 61.3673 44.2747 57.5835 52.0995 54.8196C59.9695 52.0555 68.9705 50.6734 79.1022 50.6734C82.7655 50.6734 86.4292 50.8774 90.0929 51.2851C93.8018 51.6477 97.4429 52.2367 101.016 53.0524C104.634 53.8679 108.14 54.9101 111.532 56.1789C114.97 57.4025 118.226 58.8749 121.302 60.5968L111.396 76.9093C109.542 75.8218 107.439 74.8477 105.087 73.9868C102.735 73.0806 100.202 72.3327 97.4881 71.7436C94.8196 71.1095 92.0378 70.6335 89.1432 70.3164C86.2938 69.9991 83.4214 69.8407 80.5267 69.8407C73.8326 69.8407 67.8624 70.7017 62.6157 72.4236C57.3687 74.0999 52.9363 76.4788 49.3178 79.56C45.6996 82.596 42.9404 86.2437 41.0408 90.5032C39.1411 94.7624 38.1913 99.4298 38.1913 104.505C38.1913 109.761 39.1863 114.587 41.1764 118.982C43.1666 123.377 45.9935 127.161 49.6572 130.333C53.3209 133.505 57.7533 135.997 62.9548 137.809C68.1563 139.576 73.9684 140.46 80.3909 140.46C85.5021 140.46 90.1836 139.894 94.435 138.761C98.6868 137.583 102.396 135.929 105.562 133.799C108.728 131.67 111.306 129.109 113.296 126.119C115.286 123.083 116.598 119.684 117.231 115.924H80.1874V98.1836H136.567V98.2514L136.635 98.1836C137.766 103.621 138.105 108.923 137.653 114.088C137.245 119.209 136.07 124.057 134.125 128.634C132.225 133.165 129.602 137.334 126.255 141.14C122.907 144.946 118.905 148.231 114.246 150.995C109.587 153.714 104.295 155.844 98.37 157.384C92.445 158.88 85.9544 159.627 78.8986 159.627C69.0382 159.627 60.1956 158.177 52.3708 155.277C44.5915 152.377 37.9877 148.413 32.5601 143.383C27.1324 138.353 22.9713 132.463 20.0765 125.711C17.227 118.96 15.8022 111.755 15.8022 104.097Z" fill="#065B2E"/>
<path d="M75.8727 104.776C75.8727 96.7564 77.3424 89.4157 80.2825 82.7546C83.2223 76.0936 87.3383 70.3843 92.6304 65.6264C97.9674 60.8233 104.345 57.1077 111.763 54.4796C119.226 51.8515 127.48 50.5375 136.526 50.5375C145.527 50.5375 153.759 51.8515 161.222 54.4796C168.685 57.1077 175.063 60.8233 180.355 65.6264C185.691 70.3843 189.83 76.0936 192.77 82.7546C195.71 89.4157 197.18 96.7564 197.18 104.776C197.18 112.842 195.71 120.251 192.77 127.002C189.83 133.708 185.691 139.486 180.355 144.334C175.063 149.183 168.685 152.966 161.222 155.685C153.759 158.359 145.527 159.695 136.526 159.695C127.48 159.695 119.226 158.359 111.763 155.685C104.345 152.966 97.9674 149.183 92.6304 144.334C87.3383 139.486 83.2223 133.708 80.2825 127.002C77.3424 120.251 75.8727 112.842 75.8727 104.776ZM97.3796 104.776C97.3796 110.26 98.3519 115.198 100.297 119.594C102.287 123.989 105.023 127.75 108.506 130.876C112.034 133.958 116.173 136.337 120.922 138.013C125.716 139.69 130.918 140.528 136.526 140.528C142.135 140.528 147.314 139.69 152.063 138.013C156.857 136.337 160.996 133.958 164.479 130.876C167.961 127.75 170.698 123.989 172.688 119.594C174.678 115.198 175.673 110.26 175.673 104.776C175.673 99.2937 174.678 94.3775 172.688 90.0275C170.698 85.6775 167.961 82.0071 164.479 79.0164C160.996 75.9805 156.857 73.6694 152.063 72.0836C147.314 70.4977 142.135 69.7046 136.526 69.7046C130.918 69.7046 125.716 70.4977 120.922 72.0836C116.173 73.6694 112.034 75.9805 108.506 79.0164C105.023 82.0071 102.287 85.6775 100.297 90.0275C98.3519 94.3775 97.3796 99.2937 97.3796 104.776Z" fill="#6A9B31"/>
</svg>
