<svg width="57" height="50" viewBox="0 0 57 50" fill="none" xmlns="http://www.w3.org/2000/svg">
<path d="M2.24609 24.4531C2.24609 22.3047 2.64974 20.2995 3.45703 18.4375C4.26432 16.5625 5.44271 14.9349 6.99219 13.5547C8.54167 12.1745 10.4427 11.0872 12.6953 10.293C14.9609 9.4987 17.5521 9.10156 20.4688 9.10156C21.5234 9.10156 22.5781 9.16016 23.6328 9.27734C24.7005 9.38151 25.7487 9.55078 26.7773 9.78516C27.819 10.0195 28.8281 10.319 29.8047 10.6836C30.7943 11.0352 31.7318 11.4583 32.6172 11.9531L29.7656 16.6406C29.2318 16.3281 28.6263 16.0482 27.9492 15.8008C27.2721 15.5404 26.543 15.3255 25.7617 15.1562C24.9935 14.974 24.1927 14.8372 23.3594 14.7461C22.5391 14.6549 21.7122 14.6094 20.8789 14.6094C18.9518 14.6094 17.2331 14.8568 15.7227 15.3516C14.2122 15.8333 12.9362 16.5169 11.8945 17.4023C10.8529 18.2747 10.0586 19.3229 9.51172 20.5469C8.96484 21.7708 8.69141 23.112 8.69141 24.5703C8.69141 26.0807 8.97786 27.4674 9.55078 28.7305C10.1237 29.9935 10.9375 31.0807 11.9922 31.9922C13.0469 32.9036 14.3229 33.6198 15.8203 34.1406C17.3177 34.6484 18.9909 34.9023 20.8398 34.9023C22.3112 34.9023 23.6589 34.7396 24.8828 34.4141C26.1068 34.0755 27.1745 33.6003 28.0859 32.9883C28.9974 32.3763 29.7396 31.6406 30.3125 30.7812C30.8854 29.9089 31.263 28.9323 31.4453 27.8516H20.7812V22.7539H37.0117V22.7734L37.0312 22.7539C37.3568 24.3164 37.4544 25.8398 37.3242 27.3242C37.207 28.7956 36.8685 30.1888 36.3086 31.5039C35.7617 32.806 35.0065 34.0039 34.043 35.0977C33.0794 36.1914 31.9271 37.1354 30.5859 37.9297C29.2448 38.7109 27.7214 39.3229 26.0156 39.7656C24.3099 40.1953 22.4414 40.4102 20.4102 40.4102C17.5716 40.4102 15.026 39.9935 12.7734 39.1602C10.5339 38.3268 8.63281 37.1875 7.07031 35.7422C5.50781 34.2969 4.3099 32.6042 3.47656 30.6641C2.65625 28.724 2.24609 26.6536 2.24609 24.4531Z" fill="#065B2E"/>
<path d="M19.5391 24.6484C19.5391 22.3438 19.9622 20.2344 20.8086 18.3203C21.6549 16.4062 22.8398 14.7656 24.3633 13.3984C25.8997 12.0182 27.7357 10.9505 29.8711 10.1953C32.0195 9.4401 34.3958 9.0625 37 9.0625C39.5911 9.0625 41.9609 9.4401 44.1094 10.1953C46.2578 10.9505 48.0938 12.0182 49.6172 13.3984C51.1536 14.7656 52.3451 16.4062 53.1914 18.3203C54.0378 20.2344 54.4609 22.3438 54.4609 24.6484C54.4609 26.9661 54.0378 29.0951 53.1914 31.0352C52.3451 32.9622 51.1536 34.6224 49.6172 36.0156C48.0938 37.4089 46.2578 38.4961 44.1094 39.2773C41.9609 40.0456 39.5911 40.4297 37 40.4297C34.3958 40.4297 32.0195 40.0456 29.8711 39.2773C27.7357 38.4961 25.8997 37.4089 24.3633 36.0156C22.8398 34.6224 21.6549 32.9622 20.8086 31.0352C19.9622 29.0951 19.5391 26.9661 19.5391 24.6484ZM25.7305 24.6484C25.7305 26.224 26.0104 27.6432 26.5703 28.9062C27.1432 30.1693 27.931 31.25 28.9336 32.1484C29.9492 33.0339 31.1406 33.7174 32.5078 34.1992C33.888 34.681 35.3854 34.9219 37 34.9219C38.6146 34.9219 40.1055 34.681 41.4727 34.1992C42.8529 33.7174 44.0443 33.0339 45.0469 32.1484C46.0495 31.25 46.8372 30.1693 47.4102 28.9062C47.9831 27.6432 48.2695 26.224 48.2695 24.6484C48.2695 23.0729 47.9831 21.6602 47.4102 20.4102C46.8372 19.1602 46.0495 18.1055 45.0469 17.2461C44.0443 16.3737 42.8529 15.7096 41.4727 15.2539C40.1055 14.7982 38.6146 14.5703 37 14.5703C35.3854 14.5703 33.888 14.7982 32.5078 15.2539C31.1406 15.7096 29.9492 16.3737 28.9336 17.2461C27.931 18.1055 27.1432 19.1602 26.5703 20.4102C26.0104 21.6602 25.7305 23.0729 25.7305 24.6484Z" fill="#6A9B31"/>
</svg>
