<svg width="118" height="135" viewBox="0 0 118 135" fill="none" xmlns="http://www.w3.org/2000/svg">
<path d="M47.934 49.3191C47.705 49.3191 47.473 49.2661 47.256 49.1561C40.956 45.9581 36.19 40.2511 34.179 33.5001C33.943 32.7061 34.395 31.8711 35.189 31.6341C35.979 31.3981 36.817 31.8491 37.054 32.6431C38.831 38.6091 43.044 43.6531 48.614 46.4801C49.353 46.8551 49.648 47.7581 49.273 48.4971C49.008 49.0191 48.481 49.3191 47.934 49.3191Z" fill="black"/>
<path d="M69.3608 49.6001C68.7998 49.6001 68.2619 49.284 68.0059 48.743C67.6509 47.995 67.9688 47.101 68.7168 46.745C70.9028 45.707 72.9019 44.332 74.6599 42.659C75.2619 42.089 76.2089 42.1111 76.7809 42.7121C77.3519 43.3121 77.3279 44.261 76.7279 44.833C74.7389 46.725 72.4759 48.28 70.0029 49.456C69.7959 49.553 69.5768 49.6001 69.3608 49.6001Z" fill="black"/>
<path d="M79.445 40.6951C79.169 40.6951 78.888 40.6191 78.638 40.4591C77.94 40.0131 77.736 39.0851 78.182 38.3871C80.521 34.7261 81.757 30.4831 81.757 26.1161C81.757 22.0591 80.68 18.0771 78.644 14.5991C78.225 13.8841 78.465 12.9651 79.18 12.5461C79.893 12.1271 80.814 12.3661 81.232 13.0821C83.539 17.0201 84.757 21.5261 84.757 26.1151C84.757 31.0551 83.358 35.8571 80.709 40.0021C80.424 40.4511 79.939 40.6951 79.445 40.6951Z" fill="black"/>
<path d="M75.2669 9.59106C74.9069 9.59106 74.5459 9.46306 74.2589 9.20206C70.0549 5.39006 64.6119 3.29006 58.9319 3.29006C55.3069 3.29006 51.8419 4.11406 48.6319 5.74006C47.8959 6.11306 46.9899 5.82006 46.6159 5.07906C46.2409 4.34006 46.5369 3.43706 47.2759 3.06306C50.9099 1.22206 54.8309 0.289062 58.9309 0.289062C65.3579 0.289062 71.5169 2.66406 76.2739 6.97806C76.8869 7.53506 76.9339 8.48306 76.3779 9.09706C76.0829 9.42506 75.6759 9.59106 75.2669 9.59106Z" fill="black"/>
<path d="M34.6069 27.6161C33.7789 27.6161 33.1069 26.9451 33.1069 26.1161C33.1069 18.3811 36.5329 11.1171 42.5039 6.18909C43.1449 5.66109 44.0879 5.75208 44.6159 6.39108C45.1429 7.03008 45.0529 7.97608 44.4139 8.50208C39.1349 12.8591 36.1059 19.2791 36.1059 26.1161C36.1069 26.9451 35.4349 27.6161 34.6069 27.6161Z" fill="black"/>
<path d="M61.8279 62.28V63.241C61.8279 64.828 60.5419 66.108 58.9609 66.108H58.9029C57.3219 66.108 56.0359 64.828 56.0359 63.241V62.28C56.1169 62.292 56.2039 62.292 56.2909 62.292H61.5719C61.6599 62.292 61.7469 62.292 61.8279 62.28Z" fill="#6A9B31"/>
<path d="M58.9619 67.6081H58.9039C56.4959 67.6081 54.5369 65.649 54.5369 63.241V62.28C54.5369 61.845 54.7259 61.431 55.0549 61.146C55.3839 60.861 55.8169 60.731 56.2509 60.795L61.5719 60.791C62.0029 60.731 62.4589 60.8581 62.7889 61.1431C63.1179 61.4281 63.3269 61.8441 63.3269 62.2791V63.2401C63.3279 65.6491 61.3689 67.6081 58.9619 67.6081ZM57.6529 63.7921C57.8649 64.2721 58.3449 64.6081 58.9039 64.6081H58.9619C59.5199 64.6081 59.9999 64.2721 60.2129 63.7921H57.6529Z" fill="black"/>
<path d="M69.9129 41.299C67.0579 43.621 65.367 47.102 65.367 50.785V52.852H52.499V50.866C52.499 47.206 50.924 43.673 48.063 41.392C44.061 38.195 41.502 33.273 41.502 27.76C41.502 17.967 49.5799 10.051 59.4429 10.335C68.4889 10.596 75.936 17.91 76.341 26.944C76.613 32.734 74.0419 37.94 69.9129 41.299Z" fill="#89FF00" fill-opacity="0.47"/>
<path d="M65.367 54.3521H52.499C51.671 54.3521 50.999 53.6811 50.999 52.8521V50.8661C50.999 47.6011 49.552 44.4981 47.128 42.5651C42.599 38.9471 40.002 33.5511 40.002 27.7601C40.002 17.1351 48.828 8.5211 59.485 8.8351C69.336 9.1191 77.398 17.0441 77.838 26.8761C78.124 32.9401 75.5799 38.6231 70.8589 42.4631C68.3219 44.5261 66.867 47.5601 66.867 50.7851V52.8521C66.867 53.6811 66.195 54.3521 65.367 54.3521ZM53.999 51.3521H63.867V50.7851C63.867 46.6531 65.7249 42.7711 68.9669 40.1361C72.9419 36.9031 75.083 32.1201 74.843 27.0141C74.472 18.7401 67.6879 12.0731 59.3999 11.8341C50.4249 11.5551 43.003 18.8171 43.003 27.7601C43.003 32.6341 45.19 37.1761 49.001 40.2201C52.178 42.7541 54 46.6351 54 50.8661L53.999 51.3521Z" fill="black"/>
<path d="M65.367 52.8521H52.499V57.6671H65.367V52.8521Z" fill="#6A9B31"/>
<path d="M52.499 59.171C52.102 59.171 51.72 59.013 51.438 58.732C51.157 58.451 50.999 58.069 50.999 57.671V52.853C50.999 52.024 51.671 51.353 52.499 51.353H65.367C66.195 51.353 66.867 52.024 66.867 52.853V57.666C66.867 58.494 66.196 59.165 65.368 59.166L52.499 59.171ZM53.999 54.352V56.17L63.867 56.165V54.352H53.999Z" fill="black"/>
<path d="M65.367 57.665V58.499C65.367 60.508 63.809 62.153 61.829 62.28C61.748 62.292 61.661 62.2921 61.574 62.2921H56.293C56.206 62.2921 56.119 62.292 56.038 62.28C54.058 62.153 52.5 60.508 52.5 58.499V57.6711L65.367 57.665Z" fill="#6A9B31"/>
<path d="M61.573 63.7921H56.292C56.157 63.7921 56.023 63.788 55.896 63.774C53.146 63.573 51 61.265 51 58.499V57.6711C51 56.8431 51.671 56.1711 52.499 56.1711L65.367 56.165C65.765 56.165 66.147 56.323 66.429 56.604C66.71 56.885 66.868 57.267 66.868 57.665V58.499C66.868 61.265 64.721 63.573 61.971 63.774C61.842 63.788 61.708 63.7921 61.573 63.7921ZM54.099 59.17C54.371 60.056 55.167 60.7211 56.133 60.7831C56.172 60.7861 56.212 60.7901 56.251 60.7961L61.653 60.7921C62.683 60.7231 63.493 60.055 63.766 59.166L54.099 59.17Z" fill="black"/>
<path d="M61.8251 54.3421C60.9971 54.3421 60.3251 53.6931 60.3251 52.8641V52.8201C60.3251 46.3211 61.0931 39.8191 62.6051 33.4951L63.7961 28.5191L61.8391 29.2571C61.3641 29.4351 60.8331 29.3631 60.4251 29.0651L58.0471 27.3281C57.3781 26.8391 57.2321 25.9011 57.7211 25.2321C58.2101 24.5611 59.1491 24.4171 59.8171 24.9051L61.54 26.1641L65.385 24.7131C65.905 24.5161 66.4891 24.6241 66.9061 24.9911C67.3221 25.3581 67.5021 25.9261 67.3731 26.4661L65.5231 34.1941C64.0641 40.2901 63.3251 46.5571 63.3251 52.8211C63.3251 53.6481 62.6531 54.3421 61.8251 54.3421Z" fill="black"/>
<path d="M56.041 54.3421C55.213 54.3421 54.541 53.6931 54.541 52.8641V52.8201C54.541 46.5561 53.802 40.2891 52.343 34.1931L50.492 26.4651C50.363 25.9251 50.543 25.3581 50.959 24.9911C51.377 24.6241 51.961 24.5161 52.48 24.7131L56.326 26.1641L58.048 24.9061C58.715 24.4181 59.654 24.5631 60.144 25.2321C60.633 25.9011 60.487 26.8391 59.818 27.3281L57.441 29.0651C57.031 29.3641 56.5 29.4361 56.027 29.2571L54.07 28.5191L55.261 33.4951C56.774 39.8191 57.541 46.3211 57.541 52.8201C57.541 53.6481 56.869 54.3421 56.041 54.3421Z" fill="black"/>
<path d="M16.7331 78.107C13.3791 79.113 11.4751 82.6481 12.4811 86.0031L19.2471 108.559C20.2531 111.914 23.7881 113.817 27.1431 112.811C30.4971 111.805 32.4011 108.27 31.3951 104.915L24.6291 82.359C23.6231 79.005 20.0881 77.101 16.7331 78.107Z" fill="#DDC2B5"/>
<path d="M25.318 114.58C21.884 114.58 18.797 112.281 17.81 108.99L11.044 86.434C9.802 82.292 12.16 77.913 16.302 76.671C17.036 76.45 17.795 76.338 18.557 76.338C21.991 76.338 25.078 78.637 26.065 81.928L32.831 104.484C33.433 106.49 33.218 108.61 32.225 110.455C31.232 112.299 29.58 113.646 27.574 114.248C26.839 114.468 26.08 114.58 25.318 114.58ZM18.557 79.338C18.088 79.338 17.619 79.407 17.163 79.544C14.606 80.311 13.15 83.015 13.917 85.572L20.683 108.128C21.292 110.161 23.199 111.58 25.318 111.58C25.787 111.58 26.256 111.511 26.712 111.375C27.95 111.003 28.971 110.171 29.583 109.033C30.196 107.894 30.329 106.585 29.958 105.347L23.192 82.791C22.583 80.758 20.676 79.338 18.557 79.338Z" fill="black"/>
<path d="M111.557 95.7941C111.146 95.8871 110.552 96.0461 109.798 96.2491C105.577 97.3821 97.719 99.4891 83.463 97.9051C83.232 97.8801 83.009 97.8011 82.814 97.6741C82.578 97.5211 82.331 97.3711 82.076 97.2231C75.643 93.5061 67.588 93.7671 61.054 97.9091L57.343 100.261C57.118 100.403 56.86 100.484 56.594 100.493L40.703 101.062C39.047 101.031 37.747 101.507 36.855 102.411C36.148 103.128 35.718 104.119 35.705 105.063C35.698 105.583 35.748 106.065 35.853 106.507C35.896 106.612 35.926 106.723 35.943 106.836C36.503 108.61 38.019 109.641 40.238 109.672L54.582 109.875H70.355C71.184 109.875 71.855 110.546 71.855 111.375C71.855 112.204 71.184 112.875 70.355 112.875H54.561L40.195 112.672C36.802 112.624 34.264 110.897 33.222 108.148L23.939 103.86C23.624 103.714 23.37 103.464 23.218 103.153L11.83 79.6751C11.398 78.7301 10.566 77.9951 9.53503 77.6261C8.70403 77.3291 7.36903 77.1351 5.72203 77.8881C3.03803 79.1151 2.67803 81.5251 3.51003 83.3691L15.874 110.382L42.031 125.361C45.187 127.168 48.298 128.885 51.655 130.035C54.022 130.846 56.561 131.168 59.646 131.402C66.893 131.952 73.86 131.003 81.234 129.996C83.76 129.651 86.372 129.295 88.967 129.01C95.03 128.346 104.292 128.622 108.522 129.313C111.417 129.783 112.947 125.389 113.601 122.724C116.251 111.933 113.758 96.5211 111.557 95.7941Z" fill="#DDC2B5"/>
<path d="M114.548 94.641C113.251 92.739 111.784 92.704 111.029 92.852C110.468 92.962 109.83 93.133 109.021 93.351C105.024 94.423 97.614 96.411 84.137 94.961C83.955 94.848 83.7681 94.736 83.5781 94.626C76.1761 90.348 66.9301 90.634 59.4491 95.375L56.0811 97.509L40.6721 98.063C37.6301 98.035 35.7521 99.258 34.7191 100.305C33.5631 101.477 32.8501 103.028 32.7251 104.612L25.6861 101.361L14.5461 78.397C13.7941 76.752 12.3351 75.441 10.5461 74.801C8.63205 74.118 6.47705 74.245 4.47705 75.16C0.652053 76.909 -0.902947 80.88 0.782053 84.611L13.3501 112.069C13.4801 112.354 13.6971 112.59 13.9681 112.746L40.5431 127.964C43.6991 129.771 47.0821 131.638 50.6861 132.873C53.6521 133.889 56.7501 134.191 59.4211 134.394C60.9451 134.51 62.4641 134.561 63.9771 134.561C69.9781 134.561 75.8891 133.754 81.6421 132.97C84.1491 132.628 86.7411 132.274 89.2971 131.993C95.0341 131.363 104.084 131.628 108.041 132.275C109.778 132.559 112.272 132.224 114.313 129.019C119.459 120.941 118.25 100.071 114.548 94.641ZM108.525 129.313C104.295 128.622 95.0331 128.346 88.9701 129.01C86.3751 129.295 83.7631 129.652 81.2371 129.996C73.8631 131.002 66.8961 131.952 59.6491 131.402C56.5651 131.168 54.0251 130.845 51.6581 130.035C48.3011 128.885 45.1901 127.168 42.0341 125.361L15.8771 110.382L3.51306 83.369C2.68106 81.525 3.04105 79.115 5.72505 77.888C7.37105 77.135 8.70606 77.329 9.53806 77.626C10.5691 77.995 11.4011 78.73 11.8331 79.675L23.2211 103.153C23.3721 103.464 23.6271 103.714 23.9421 103.86L33.2251 108.148C34.2671 110.897 36.8051 112.624 40.1981 112.672L54.5641 112.875H70.3581C71.1871 112.875 71.8581 112.204 71.8581 111.375C71.8581 110.546 71.1871 109.875 70.3581 109.875H54.5851L40.2411 109.672C38.0221 109.641 36.5061 108.61 35.9461 106.836C35.9281 106.723 35.8981 106.613 35.8561 106.507C35.7511 106.066 35.7001 105.583 35.7081 105.063C35.7211 104.12 36.1511 103.128 36.8581 102.411C37.7501 101.507 39.0501 101.031 40.7061 101.062L56.5971 100.493C56.8631 100.484 57.1211 100.403 57.3461 100.261L61.0571 97.909C67.5911 93.767 75.646 93.506 82.079 97.223C82.334 97.37 82.5801 97.521 82.8171 97.674C83.0121 97.8 83.2341 97.88 83.4661 97.905C97.7221 99.489 105.581 97.382 109.801 96.249C110.554 96.047 111.149 95.887 111.56 95.794C113.761 96.521 116.254 111.933 113.607 122.724C112.95 125.388 111.42 129.783 108.525 129.313Z" fill="black"/>
</svg>
