<svg width="100" height="100" viewBox="0 0 100 100" fill="none" xmlns="http://www.w3.org/2000/svg">
<path d="M50 47.9167C47.2373 47.9167 44.5878 46.8192 42.6343 44.8657C40.6808 42.9122 39.5833 40.2627 39.5833 37.5C39.5833 34.7374 40.6808 32.0878 42.6343 30.1343C44.5878 28.1808 47.2373 27.0834 50 27.0834C52.7627 27.0834 55.4122 28.1808 57.3657 30.1343C59.3192 32.0878 60.4167 34.7374 60.4167 37.5C60.4167 38.868 60.1472 40.2225 59.6238 41.4863C59.1003 42.7501 58.333 43.8985 57.3657 44.8657C56.3984 45.833 55.2501 46.6003 53.9863 47.1238C52.7225 47.6473 51.3679 47.9167 50 47.9167ZM50 8.33337C42.2645 8.33337 34.8459 11.4063 29.3761 16.8761C23.9063 22.3459 20.8333 29.7646 20.8333 37.5C20.8333 59.375 50 91.6667 50 91.6667C50 91.6667 79.1667 59.375 79.1667 37.5C79.1667 29.7646 76.0938 22.3459 70.624 16.8761C65.1541 11.4063 57.7355 8.33337 50 8.33337Z" fill="#F8F8F8"/>
</svg>
