<svg width="208" height="63" viewBox="0 0 208 63" fill="none" xmlns="http://www.w3.org/2000/svg">
<path d="M4.33594 9.47266H31.6406V14.9023H10.5273V22.8906H28.457V27.9883H10.5273V40H4.33594V9.47266ZM35.5273 24.4531C35.5273 22.3047 35.931 20.2995 36.7383 18.4375C37.5456 16.5625 38.724 14.9349 40.2734 13.5547C41.8229 12.1745 43.724 11.0872 45.9766 10.293C48.2422 9.4987 50.8333 9.10156 53.75 9.10156C54.8047 9.10156 55.8594 9.16016 56.9141 9.27734C57.9818 9.38151 59.0299 9.55078 60.0586 9.78516C61.1003 10.0195 62.1094 10.319 63.0859 10.6836C64.0755 11.0352 65.013 11.4583 65.8984 11.9531L63.0469 16.6406C62.513 16.3281 61.9076 16.0482 61.2305 15.8008C60.5534 15.5404 59.8242 15.3255 59.043 15.1562C58.2747 14.974 57.474 14.8372 56.6406 14.7461C55.8203 14.6549 54.9935 14.6094 54.1602 14.6094C52.2331 14.6094 50.5143 14.8568 49.0039 15.3516C47.4935 15.8333 46.2174 16.5169 45.1758 17.4023C44.1341 18.2747 43.3398 19.3229 42.793 20.5469C42.2461 21.7708 41.9727 23.112 41.9727 24.5703C41.9727 26.0807 42.2591 27.4674 42.832 28.7305C43.4049 29.9935 44.2188 31.0807 45.2734 31.9922C46.3281 32.9036 47.6042 33.6198 49.1016 34.1406C50.599 34.6484 52.2721 34.9023 54.1211 34.9023C55.5924 34.9023 56.9401 34.7396 58.1641 34.4141C59.388 34.0755 60.4557 33.6003 61.3672 32.9883C62.2786 32.3763 63.0208 31.6406 63.5938 30.7812C64.1667 29.9089 64.5443 28.9323 64.7266 27.8516H54.0625V22.7539H70.293V22.7734L70.3125 22.7539C70.638 24.3164 70.7357 25.8398 70.6055 27.3242C70.4883 28.7956 70.1497 30.1888 69.5898 31.5039C69.043 32.806 68.2878 34.0039 67.3242 35.0977C66.3607 36.1914 65.2083 37.1354 63.8672 37.9297C62.526 38.7109 61.0026 39.3229 59.2969 39.7656C57.5911 40.1953 55.7227 40.4102 53.6914 40.4102C50.8529 40.4102 48.3073 39.9935 46.0547 39.1602C43.8151 38.3268 41.9141 37.1875 40.3516 35.7422C38.7891 34.2969 37.5911 32.6042 36.7578 30.6641C35.9375 28.724 35.5273 26.6536 35.5273 24.4531Z" fill="#065B2E"/>
<path d="M53.5391 24.6484C53.5391 22.3438 53.9622 20.2344 54.8086 18.3203C55.6549 16.4062 56.8398 14.7656 58.3633 13.3984C59.8997 12.0182 61.7357 10.9505 63.8711 10.1953C66.0195 9.4401 68.3958 9.0625 71 9.0625C73.5911 9.0625 75.9609 9.4401 78.1094 10.1953C80.2578 10.9505 82.0938 12.0182 83.6172 13.3984C85.1536 14.7656 86.3451 16.4062 87.1914 18.3203C88.0378 20.2344 88.4609 22.3438 88.4609 24.6484C88.4609 26.9661 88.0378 29.0951 87.1914 31.0352C86.3451 32.9622 85.1536 34.6224 83.6172 36.0156C82.0938 37.4089 80.2578 38.4961 78.1094 39.2773C75.9609 40.0456 73.5911 40.4297 71 40.4297C68.3958 40.4297 66.0195 40.0456 63.8711 39.2773C61.7357 38.4961 59.8997 37.4089 58.3633 36.0156C56.8398 34.6224 55.6549 32.9622 54.8086 31.0352C53.9622 29.0951 53.5391 26.9661 53.5391 24.6484ZM59.7305 24.6484C59.7305 26.224 60.0104 27.6432 60.5703 28.9062C61.1432 30.1693 61.931 31.25 62.9336 32.1484C63.9492 33.0339 65.1406 33.7174 66.5078 34.1992C67.888 34.681 69.3854 34.9219 71 34.9219C72.6146 34.9219 74.1055 34.681 75.4727 34.1992C76.8529 33.7174 78.0443 33.0339 79.0469 32.1484C80.0495 31.25 80.8372 30.1693 81.4102 28.9062C81.9831 27.6432 82.2695 26.224 82.2695 24.6484C82.2695 23.0729 81.9831 21.6602 81.4102 20.4102C80.8372 19.1602 80.0495 18.1055 79.0469 17.2461C78.0443 16.3737 76.8529 15.7096 75.4727 15.2539C74.1055 14.7982 72.6146 14.5703 71 14.5703C69.3854 14.5703 67.888 14.7982 66.5078 15.2539C65.1406 15.7096 63.9492 16.3737 62.9336 17.2461C61.931 18.1055 61.1432 19.1602 60.5703 20.4102C60.0104 21.6602 59.7305 23.0729 59.7305 24.6484ZM93.5391 24.6484C93.5391 22.3438 93.9622 20.2344 94.8086 18.3203C95.6549 16.4062 96.8398 14.7656 98.3633 13.3984C99.8997 12.0182 101.736 10.9505 103.871 10.1953C106.02 9.4401 108.396 9.0625 111 9.0625C113.591 9.0625 115.961 9.4401 118.109 10.1953C120.258 10.9505 122.094 12.0182 123.617 13.3984C125.154 14.7656 126.345 16.4062 127.191 18.3203C128.038 20.2344 128.461 22.3438 128.461 24.6484C128.461 26.9661 128.038 29.0951 127.191 31.0352C126.345 32.9622 125.154 34.6224 123.617 36.0156C122.094 37.4089 120.258 38.4961 118.109 39.2773C115.961 40.0456 113.591 40.4297 111 40.4297C108.396 40.4297 106.02 40.0456 103.871 39.2773C101.736 38.4961 99.8997 37.4089 98.3633 36.0156C96.8398 34.6224 95.6549 32.9622 94.8086 31.0352C93.9622 29.0951 93.5391 26.9661 93.5391 24.6484ZM99.7305 24.6484C99.7305 26.224 100.01 27.6432 100.57 28.9062C101.143 30.1693 101.931 31.25 102.934 32.1484C103.949 33.0339 105.141 33.7174 106.508 34.1992C107.888 34.681 109.385 34.9219 111 34.9219C112.615 34.9219 114.105 34.681 115.473 34.1992C116.853 33.7174 118.044 33.0339 119.047 32.1484C120.049 31.25 120.837 30.1693 121.41 28.9062C121.983 27.6432 122.27 26.224 122.27 24.6484C122.27 23.0729 121.983 21.6602 121.41 20.4102C120.837 19.1602 120.049 18.1055 119.047 17.2461C118.044 16.3737 116.853 15.7096 115.473 15.2539C114.105 14.7982 112.615 14.5703 111 14.5703C109.385 14.5703 107.888 14.7982 106.508 15.2539C105.141 15.7096 103.949 16.3737 102.934 17.2461C101.931 18.1055 101.143 19.1602 100.57 20.4102C100.01 21.6602 99.7305 23.0729 99.7305 24.6484ZM135.336 9.47266H146.527C149.796 9.47266 152.634 9.82422 155.043 10.5273C157.452 11.2305 159.444 12.2396 161.02 13.5547C162.608 14.8568 163.786 16.4453 164.555 18.3203C165.336 20.1823 165.727 22.2786 165.727 24.6094C165.727 26.8229 165.342 28.8737 164.574 30.7617C163.806 32.6367 162.634 34.2643 161.059 35.6445C159.483 37.0117 157.491 38.0859 155.082 38.8672C152.673 39.6354 149.835 40.0195 146.566 40.0195L135.336 40V9.47266ZM148.051 34.6484C149.9 34.6484 151.521 34.4141 152.914 33.9453C154.307 33.4635 155.466 32.7865 156.391 31.9141C157.328 31.0417 158.031 29.987 158.5 28.75C158.969 27.513 159.203 26.1328 159.203 24.6094C159.203 23.112 158.969 21.7643 158.5 20.5664C158.031 19.3555 157.328 18.3333 156.391 17.5C155.466 16.6536 154.307 16.0026 152.914 15.5469C151.521 15.0911 149.9 14.8633 148.051 14.8633H141.527V34.6484H148.051Z" fill="#6A9B31"/>
<path d="M173.363 30.918C174.47 31.543 175.59 32.1094 176.723 32.6172C177.868 33.112 179.053 33.5352 180.277 33.8867C181.501 34.2253 182.784 34.4857 184.125 34.668C185.479 34.8503 186.918 34.9414 188.441 34.9414C190.277 34.9414 191.84 34.8242 193.129 34.5898C194.418 34.3424 195.466 34.0104 196.273 33.5938C197.094 33.1641 197.686 32.6562 198.051 32.0703C198.428 31.4844 198.617 30.8464 198.617 30.1562C198.617 29.0495 198.155 28.1771 197.23 27.5391C196.306 26.888 194.88 26.5625 192.953 26.5625C192.107 26.5625 191.215 26.6211 190.277 26.7383C189.34 26.8424 188.389 26.9596 187.426 27.0898C186.475 27.2201 185.531 27.3438 184.594 27.4609C183.669 27.5651 182.797 27.6172 181.977 27.6172C180.609 27.6172 179.294 27.4414 178.031 27.0898C176.781 26.7383 175.668 26.2109 174.691 25.5078C173.728 24.8047 172.96 23.9258 172.387 22.8711C171.814 21.8164 171.527 20.5859 171.527 19.1797C171.527 18.3464 171.638 17.5195 171.859 16.6992C172.094 15.8789 172.458 15.0977 172.953 14.3555C173.461 13.6003 174.112 12.9036 174.906 12.2656C175.701 11.6146 176.658 11.0547 177.777 10.5859C178.91 10.1172 180.212 9.7526 181.684 9.49219C183.168 9.21875 184.854 9.08203 186.742 9.08203C188.109 9.08203 189.483 9.16016 190.863 9.31641C192.243 9.45964 193.585 9.66797 194.887 9.94141C196.202 10.2148 197.465 10.5469 198.676 10.9375C199.887 11.3151 201.013 11.7383 202.055 12.207L199.34 17.207C198.48 16.8294 197.556 16.4844 196.566 16.1719C195.577 15.8464 194.542 15.5664 193.461 15.332C192.38 15.0977 191.26 14.9154 190.102 14.7852C188.956 14.6419 187.784 14.5703 186.586 14.5703C184.88 14.5703 183.474 14.694 182.367 14.9414C181.273 15.1888 180.401 15.5078 179.75 15.8984C179.099 16.276 178.643 16.7057 178.383 17.1875C178.135 17.6562 178.012 18.125 178.012 18.5938C178.012 19.5052 178.422 20.2539 179.242 20.8398C180.062 21.4128 181.312 21.6992 182.992 21.6992C183.669 21.6992 184.444 21.6536 185.316 21.5625C186.202 21.4583 187.126 21.3477 188.09 21.2305C189.066 21.1133 190.056 21.0091 191.059 20.918C192.074 20.8138 193.057 20.7617 194.008 20.7617C195.805 20.7617 197.393 20.9635 198.773 21.3672C200.167 21.7708 201.332 22.3503 202.27 23.1055C203.207 23.8477 203.917 24.7526 204.398 25.8203C204.88 26.875 205.121 28.0599 205.121 29.375C205.121 31.1328 204.711 32.7018 203.891 34.082C203.083 35.4492 201.924 36.6081 200.414 37.5586C198.917 38.4961 197.107 39.2122 194.984 39.707C192.862 40.1888 190.499 40.4297 187.895 40.4297C186.176 40.4297 184.496 40.319 182.855 40.0977C181.215 39.8893 179.639 39.5898 178.129 39.1992C176.632 38.7956 175.199 38.3203 173.832 37.7734C172.478 37.2135 171.221 36.6016 170.062 35.9375L173.363 30.918Z" fill="#065B2E"/>
<path d="M5.84229 53.1699C5.84229 52.3643 5.99365 51.6123 6.29639 50.9141C6.59912 50.2109 7.04102 49.6006 7.62207 49.083C8.20312 48.5654 8.91602 48.1577 9.76074 47.8599C10.6104 47.562 11.582 47.4131 12.6758 47.4131C13.0713 47.4131 13.4668 47.4351 13.8623 47.479C14.2627 47.5181 14.6558 47.5815 15.0415 47.6694C15.4321 47.7573 15.8105 47.8696 16.1768 48.0063C16.5479 48.1382 16.8994 48.2969 17.2314 48.4824L16.1621 50.2402C15.9619 50.123 15.7349 50.0181 15.481 49.9253C15.2271 49.8276 14.9536 49.7471 14.6606 49.6836C14.3726 49.6152 14.0723 49.564 13.7598 49.5298C13.4521 49.4956 13.1421 49.4785 12.8296 49.4785C12.1069 49.4785 11.4624 49.5713 10.896 49.7568C10.3296 49.9375 9.85107 50.1938 9.46045 50.5259C9.06982 50.853 8.77197 51.2461 8.56689 51.7051C8.36182 52.1641 8.25928 52.667 8.25928 53.2139C8.25928 53.7803 8.3667 54.3003 8.58154 54.7739C8.79639 55.2476 9.10156 55.6553 9.49707 55.9971C9.89258 56.3389 10.3711 56.6074 10.9326 56.8027C11.4941 56.9932 12.1216 57.0884 12.8149 57.0884C13.3667 57.0884 13.8721 57.0273 14.3311 56.9053C14.79 56.7783 15.1904 56.6001 15.5322 56.3706C15.874 56.1411 16.1523 55.8652 16.3672 55.543C16.582 55.2158 16.7236 54.8496 16.792 54.4443H12.793V52.5327H18.8794V52.54L18.8867 52.5327C19.0088 53.1187 19.0454 53.6899 18.9966 54.2466C18.9526 54.7983 18.8257 55.3208 18.6157 55.814C18.4106 56.3022 18.1274 56.7515 17.7661 57.1616C17.4048 57.5718 16.9727 57.9258 16.4697 58.2236C15.9668 58.5166 15.3955 58.7461 14.7559 58.9121C14.1162 59.0732 13.4155 59.1538 12.6538 59.1538C11.5894 59.1538 10.6348 58.9976 9.79004 58.6851C8.9502 58.3726 8.2373 57.9453 7.65137 57.4033C7.06543 56.8613 6.61621 56.2266 6.30371 55.499C5.99609 54.7715 5.84229 53.9951 5.84229 53.1699ZM30.7959 54.6787C30.7959 54.0586 30.9204 53.4775 31.1694 52.9355C31.4233 52.3936 31.7822 51.9199 32.2461 51.5146C32.7148 51.1094 33.2788 50.7896 33.938 50.5552C34.6021 50.3208 35.3467 50.2036 36.1719 50.2036C36.9971 50.2036 37.7393 50.3208 38.3984 50.5552C39.0625 50.7896 39.6265 51.1094 40.0903 51.5146C40.5591 51.9199 40.918 52.3936 41.167 52.9355C41.4209 53.4775 41.5479 54.0586 41.5479 54.6787C41.5479 55.2988 41.4209 55.8799 41.167 56.4219C40.918 56.9639 40.5591 57.4375 40.0903 57.8428C39.6265 58.248 39.0625 58.5679 38.3984 58.8022C37.7393 59.0366 36.9971 59.1538 36.1719 59.1538C35.3467 59.1538 34.6021 59.0366 33.938 58.8022C33.2788 58.5679 32.7148 58.248 32.2461 57.8428C31.7822 57.4375 31.4233 56.9639 31.1694 56.4219C30.9204 55.8799 30.7959 55.2988 30.7959 54.6787ZM33.0737 54.6787C33.0737 55.0254 33.1421 55.355 33.2788 55.6675C33.4204 55.9751 33.623 56.2485 33.8867 56.4878C34.1553 56.7222 34.48 56.9102 34.8608 57.0518C35.2466 57.1885 35.6836 57.2568 36.1719 57.2568C36.6602 57.2568 37.0947 57.1885 37.4756 57.0518C37.8613 56.9102 38.186 56.7222 38.4497 56.4878C38.7183 56.2485 38.9209 55.9751 39.0576 55.6675C39.1992 55.355 39.27 55.0254 39.27 54.6787C39.27 54.332 39.1992 54.0024 39.0576 53.6899C38.9209 53.3774 38.7183 53.104 38.4497 52.8696C38.186 52.6304 37.8613 52.4424 37.4756 52.3057C37.0947 52.1641 36.6602 52.0933 36.1719 52.0933C35.6836 52.0933 35.2466 52.1641 34.8608 52.3057C34.48 52.4424 34.1553 52.6304 33.8867 52.8696C33.623 53.104 33.4204 53.3774 33.2788 53.6899C33.1421 54.0024 33.0737 54.332 33.0737 54.6787ZM53.1787 54.6787C53.1787 54.0586 53.3032 53.4775 53.5522 52.9355C53.8062 52.3936 54.165 51.9199 54.6289 51.5146C55.0977 51.1094 55.6616 50.7896 56.3208 50.5552C56.9849 50.3208 57.7295 50.2036 58.5547 50.2036C59.3799 50.2036 60.1221 50.3208 60.7812 50.5552C61.4453 50.7896 62.0093 51.1094 62.4731 51.5146C62.9419 51.9199 63.3008 52.3936 63.5498 52.9355C63.8037 53.4775 63.9307 54.0586 63.9307 54.6787C63.9307 55.2988 63.8037 55.8799 63.5498 56.4219C63.3008 56.9639 62.9419 57.4375 62.4731 57.8428C62.0093 58.248 61.4453 58.5679 60.7812 58.8022C60.1221 59.0366 59.3799 59.1538 58.5547 59.1538C57.7295 59.1538 56.9849 59.0366 56.3208 58.8022C55.6616 58.5679 55.0977 58.248 54.6289 57.8428C54.165 57.4375 53.8062 56.9639 53.5522 56.4219C53.3032 55.8799 53.1787 55.2988 53.1787 54.6787ZM55.4565 54.6787C55.4565 55.0254 55.5249 55.355 55.6616 55.6675C55.8032 55.9751 56.0059 56.2485 56.2695 56.4878C56.5381 56.7222 56.8628 56.9102 57.2437 57.0518C57.6294 57.1885 58.0664 57.2568 58.5547 57.2568C59.043 57.2568 59.4775 57.1885 59.8584 57.0518C60.2441 56.9102 60.5688 56.7222 60.8325 56.4878C61.1011 56.2485 61.3037 55.9751 61.4404 55.6675C61.582 55.355 61.6528 55.0254 61.6528 54.6787C61.6528 54.332 61.582 54.0024 61.4404 53.6899C61.3037 53.3774 61.1011 53.104 60.8325 52.8696C60.5688 52.6304 60.2441 52.4424 59.8584 52.3057C59.4775 52.1641 59.043 52.0933 58.5547 52.0933C58.0664 52.0933 57.6294 52.1641 57.2437 52.3057C56.8628 52.4424 56.5381 52.6304 56.2695 52.8696C56.0059 53.104 55.8032 53.3774 55.6616 53.6899C55.5249 54.0024 55.4565 54.332 55.4565 54.6787ZM75.415 54.7153C75.415 54.0269 75.5444 53.4067 75.8032 52.855C76.062 52.2983 76.4185 51.8247 76.8726 51.4341C77.3315 51.0386 77.8735 50.7358 78.4985 50.5259C79.1284 50.311 79.8096 50.2036 80.542 50.2036C80.8545 50.2036 81.1621 50.2231 81.4648 50.2622C81.7725 50.3013 82.0654 50.355 82.3438 50.4233C82.627 50.4917 82.8906 50.5747 83.1348 50.6724C83.3838 50.7651 83.6035 50.8677 83.7939 50.98V46.8491H85.9619V59H83.7939V58.187C83.6035 58.3188 83.3789 58.4434 83.1201 58.5605C82.8613 58.6777 82.583 58.7803 82.2852 58.8682C81.9873 58.9561 81.6772 59.0244 81.355 59.0732C81.0376 59.127 80.7227 59.1538 80.4102 59.1538C79.6777 59.1538 79.0039 59.0464 78.3887 58.8315C77.7783 58.6167 77.2534 58.314 76.814 57.9233C76.3745 57.5327 76.0303 57.0664 75.7812 56.5244C75.5371 55.9775 75.415 55.3745 75.415 54.7153ZM77.6929 54.7153C77.6929 55.062 77.7612 55.3892 77.8979 55.6968C78.0396 56.0044 78.2397 56.2754 78.4985 56.5098C78.7622 56.7393 79.0771 56.9224 79.4434 57.0591C79.8145 57.1909 80.2295 57.2568 80.6885 57.2568C80.9814 57.2568 81.2744 57.23 81.5674 57.1763C81.8604 57.1177 82.1411 57.0371 82.4097 56.9346C82.6831 56.832 82.937 56.7075 83.1714 56.561C83.4106 56.4146 83.6182 56.251 83.7939 56.0703V53.0747C83.5742 52.8989 83.3423 52.75 83.0981 52.6279C82.854 52.5059 82.605 52.4058 82.3511 52.3276C82.0972 52.2495 81.8408 52.1934 81.582 52.1592C81.3232 52.1201 81.0718 52.1006 80.8276 52.1006C80.3296 52.1006 79.8853 52.1689 79.4946 52.3057C79.1089 52.4375 78.7817 52.6206 78.5132 52.855C78.2495 53.0894 78.0469 53.3652 77.9053 53.6826C77.7637 54 77.6929 54.3442 77.6929 54.7153ZM103.833 47.5522H114.072V49.5884H106.155V52.584H112.878V54.4956H106.155V59H103.833V47.5522ZM125.483 54.6787C125.483 54.0586 125.608 53.4775 125.857 52.9355C126.111 52.3936 126.47 51.9199 126.934 51.5146C127.402 51.1094 127.966 50.7896 128.625 50.5552C129.29 50.3208 130.034 50.2036 130.859 50.2036C131.685 50.2036 132.427 50.3208 133.086 50.5552C133.75 50.7896 134.314 51.1094 134.778 51.5146C135.247 51.9199 135.605 52.3936 135.854 52.9355C136.108 53.4775 136.235 54.0586 136.235 54.6787C136.235 55.2988 136.108 55.8799 135.854 56.4219C135.605 56.9639 135.247 57.4375 134.778 57.8428C134.314 58.248 133.75 58.5679 133.086 58.8022C132.427 59.0366 131.685 59.1538 130.859 59.1538C130.034 59.1538 129.29 59.0366 128.625 58.8022C127.966 58.5679 127.402 58.248 126.934 57.8428C126.47 57.4375 126.111 56.9639 125.857 56.4219C125.608 55.8799 125.483 55.2988 125.483 54.6787ZM127.761 54.6787C127.761 55.0254 127.83 55.355 127.966 55.6675C128.108 55.9751 128.311 56.2485 128.574 56.4878C128.843 56.7222 129.167 56.9102 129.548 57.0518C129.934 57.1885 130.371 57.2568 130.859 57.2568C131.348 57.2568 131.782 57.1885 132.163 57.0518C132.549 56.9102 132.874 56.7222 133.137 56.4878C133.406 56.2485 133.608 55.9751 133.745 55.6675C133.887 55.355 133.958 55.0254 133.958 54.6787C133.958 54.332 133.887 54.0024 133.745 53.6899C133.608 53.3774 133.406 53.104 133.137 52.8696C132.874 52.6304 132.549 52.4424 132.163 52.3057C131.782 52.1641 131.348 52.0933 130.859 52.0933C130.371 52.0933 129.934 52.1641 129.548 52.3057C129.167 52.4424 128.843 52.6304 128.574 52.8696C128.311 53.104 128.108 53.3774 127.966 53.6899C127.83 54.0024 127.761 54.332 127.761 54.6787ZM147.866 54.6787C147.866 54.0586 147.991 53.4775 148.24 52.9355C148.494 52.3936 148.853 51.9199 149.316 51.5146C149.785 51.1094 150.349 50.7896 151.008 50.5552C151.672 50.3208 152.417 50.2036 153.242 50.2036C154.067 50.2036 154.81 50.3208 155.469 50.5552C156.133 50.7896 156.697 51.1094 157.161 51.5146C157.629 51.9199 157.988 52.3936 158.237 52.9355C158.491 53.4775 158.618 54.0586 158.618 54.6787C158.618 55.2988 158.491 55.8799 158.237 56.4219C157.988 56.9639 157.629 57.4375 157.161 57.8428C156.697 58.248 156.133 58.5679 155.469 58.8022C154.81 59.0366 154.067 59.1538 153.242 59.1538C152.417 59.1538 151.672 59.0366 151.008 58.8022C150.349 58.5679 149.785 58.248 149.316 57.8428C148.853 57.4375 148.494 56.9639 148.24 56.4219C147.991 55.8799 147.866 55.2988 147.866 54.6787ZM150.144 54.6787C150.144 55.0254 150.212 55.355 150.349 55.6675C150.491 55.9751 150.693 56.2485 150.957 56.4878C151.226 56.7222 151.55 56.9102 151.931 57.0518C152.317 57.1885 152.754 57.2568 153.242 57.2568C153.73 57.2568 154.165 57.1885 154.546 57.0518C154.932 56.9102 155.256 56.7222 155.52 56.4878C155.789 56.2485 155.991 55.9751 156.128 55.6675C156.27 55.355 156.34 55.0254 156.34 54.6787C156.34 54.332 156.27 54.0024 156.128 53.6899C155.991 53.3774 155.789 53.104 155.52 52.8696C155.256 52.6304 154.932 52.4424 154.546 52.3057C154.165 52.1641 153.73 52.0933 153.242 52.0933C152.754 52.0933 152.317 52.1641 151.931 52.3057C151.55 52.4424 151.226 52.6304 150.957 52.8696C150.693 53.104 150.491 53.3774 150.349 53.6899C150.212 54.0024 150.144 54.332 150.144 54.6787ZM170.103 54.7153C170.103 54.0269 170.232 53.4067 170.491 52.855C170.75 52.2983 171.106 51.8247 171.56 51.4341C172.019 51.0386 172.561 50.7358 173.186 50.5259C173.816 50.311 174.497 50.2036 175.229 50.2036C175.542 50.2036 175.85 50.2231 176.152 50.2622C176.46 50.3013 176.753 50.355 177.031 50.4233C177.314 50.4917 177.578 50.5747 177.822 50.6724C178.071 50.7651 178.291 50.8677 178.481 50.98V46.8491H180.649V59H178.481V58.187C178.291 58.3188 178.066 58.4434 177.808 58.5605C177.549 58.6777 177.271 58.7803 176.973 58.8682C176.675 58.9561 176.365 59.0244 176.042 59.0732C175.725 59.127 175.41 59.1538 175.098 59.1538C174.365 59.1538 173.691 59.0464 173.076 58.8315C172.466 58.6167 171.941 58.314 171.501 57.9233C171.062 57.5327 170.718 57.0664 170.469 56.5244C170.225 55.9775 170.103 55.3745 170.103 54.7153ZM172.38 54.7153C172.38 55.062 172.449 55.3892 172.585 55.6968C172.727 56.0044 172.927 56.2754 173.186 56.5098C173.45 56.7393 173.765 56.9224 174.131 57.0591C174.502 57.1909 174.917 57.2568 175.376 57.2568C175.669 57.2568 175.962 57.23 176.255 57.1763C176.548 57.1177 176.829 57.0371 177.097 56.9346C177.371 56.832 177.625 56.7075 177.859 56.561C178.098 56.4146 178.306 56.251 178.481 56.0703V53.0747C178.262 52.8989 178.03 52.75 177.786 52.6279C177.542 52.5059 177.292 52.4058 177.039 52.3276C176.785 52.2495 176.528 52.1934 176.27 52.1592C176.011 52.1201 175.759 52.1006 175.515 52.1006C175.017 52.1006 174.573 52.1689 174.182 52.3057C173.796 52.4375 173.469 52.6206 173.201 52.855C172.937 53.0894 172.734 53.3652 172.593 53.6826C172.451 54 172.38 54.3442 172.38 54.7153ZM193.613 56.3486C194.199 56.7002 194.844 56.959 195.547 57.125C196.25 57.291 196.97 57.374 197.708 57.374C198.206 57.374 198.621 57.3398 198.953 57.2715C199.285 57.2031 199.551 57.1152 199.751 57.0078C199.951 56.9004 200.093 56.7783 200.176 56.6416C200.259 56.5049 200.3 56.3657 200.3 56.2241C200.3 56.019 200.21 55.8433 200.029 55.6968C199.854 55.5503 199.561 55.4771 199.15 55.4771C198.96 55.4771 198.755 55.4893 198.535 55.5137C198.315 55.5381 198.083 55.5649 197.839 55.5942C197.6 55.6187 197.349 55.6431 197.085 55.6675C196.826 55.6919 196.562 55.7041 196.294 55.7041C195.708 55.7041 195.208 55.6406 194.792 55.5137C194.382 55.3867 194.048 55.2134 193.789 54.9937C193.53 54.7739 193.342 54.5151 193.225 54.2173C193.108 53.9146 193.049 53.5898 193.049 53.2432C193.049 52.8037 193.152 52.3984 193.357 52.0273C193.562 51.6562 193.855 51.3364 194.236 51.0679C194.617 50.7944 195.076 50.582 195.613 50.4307C196.155 50.2793 196.758 50.2036 197.422 50.2036C197.769 50.2036 198.13 50.2256 198.506 50.2695C198.887 50.3086 199.26 50.3623 199.626 50.4307C199.993 50.499 200.344 50.5796 200.681 50.6724C201.018 50.7603 201.316 50.8555 201.575 50.958L200.894 52.6426C200.342 52.4375 199.79 52.2764 199.238 52.1592C198.691 52.0371 198.127 51.9761 197.546 51.9761C197.141 51.9761 196.797 52.0078 196.514 52.0713C196.235 52.1299 196.008 52.2104 195.833 52.313C195.657 52.4106 195.527 52.5254 195.444 52.6572C195.366 52.7842 195.327 52.9185 195.327 53.0601C195.327 53.1626 195.347 53.2554 195.386 53.3384C195.43 53.4214 195.498 53.4946 195.591 53.5581C195.688 53.6167 195.813 53.6631 195.964 53.6973C196.121 53.7266 196.311 53.7412 196.536 53.7412C196.741 53.7412 196.958 53.729 197.188 53.7046C197.417 53.6802 197.656 53.6558 197.905 53.6313C198.154 53.6021 198.411 53.5752 198.674 53.5508C198.943 53.5264 199.216 53.5142 199.495 53.5142C200.012 53.5142 200.464 53.5752 200.85 53.6973C201.24 53.8193 201.562 53.9902 201.816 54.21C202.07 54.4297 202.261 54.6885 202.388 54.9863C202.515 55.2842 202.578 55.6089 202.578 55.9604C202.578 56.4146 202.473 56.8369 202.263 57.2275C202.053 57.6182 201.741 57.9575 201.326 58.2456C200.911 58.5288 200.393 58.751 199.773 58.9121C199.158 59.0732 198.445 59.1538 197.634 59.1538C197.136 59.1538 196.655 59.1221 196.191 59.0586C195.728 59 195.286 58.9194 194.866 58.8169C194.446 58.7095 194.05 58.585 193.679 58.4434C193.313 58.3018 192.979 58.1504 192.676 57.9893L193.613 56.3486Z" fill="#6A9B31"/>
</svg>
