<svg width="100" height="100" viewBox="0 0 100 100" fill="none" xmlns="http://www.w3.org/2000/svg">
<path d="M68.9833 53.775L67.0875 55.6625C67.0875 55.6625 62.575 60.1458 50.2625 47.9041C37.95 35.6625 42.4625 31.1791 42.4625 31.1791L43.6542 29.9875C46.6 27.0625 46.8792 22.3625 44.3083 18.9291L39.0583 11.9166C35.875 7.66662 29.7292 7.10412 26.0833 10.7291L19.5417 17.2291C17.7375 19.0291 16.5292 21.3541 16.675 23.9375C17.05 30.55 20.0417 44.7708 36.725 61.3625C54.4208 78.9541 71.025 79.6541 77.8125 79.0208C79.9625 78.8208 81.8292 77.7291 83.3333 76.2291L89.25 70.3458C93.25 66.375 92.125 59.5625 87.0083 56.7833L79.05 52.4541C75.6917 50.6333 71.6083 51.1666 68.9833 53.775Z" fill="#F8F8F8"/>
</svg>
