<svg width="118" height="138" viewBox="0 0 118 138" fill="none" xmlns="http://www.w3.org/2000/svg">
<path d="M16.801 80.672C13.447 81.678 11.5429 85.213 12.5489 88.568L19.3149 111.124C20.3209 114.478 23.8559 116.382 27.2109 115.376C30.5649 114.37 32.4689 110.835 31.4629 107.48L24.6969 84.924C23.6899 81.57 20.155 79.666 16.801 80.672Z" fill="#DDC2B5"/>
<path d="M25.3849 117.145C21.9509 117.145 18.8639 114.846 17.8769 111.555L11.1109 88.9991C9.8689 84.8571 12.2269 80.477 16.3689 79.235C17.1029 79.015 17.8619 78.9031 18.6239 78.9031C22.0579 78.9031 25.1449 81.2021 26.1319 84.4931L32.8979 107.049C33.5009 109.055 33.2849 111.175 32.2919 113.02C31.2989 114.864 29.6469 116.211 27.6409 116.813C26.9059 117.033 26.1469 117.145 25.3849 117.145ZM18.6249 81.9031C18.1559 81.9031 17.6869 81.9721 17.2309 82.1091C14.6739 82.8761 13.2179 85.5801 13.9849 88.1371L20.7509 110.693C21.3599 112.726 23.2669 114.145 25.3859 114.145C25.8549 114.145 26.3239 114.076 26.7799 113.939C28.0179 113.567 29.0389 112.735 29.6509 111.597C30.2639 110.458 30.3969 109.149 30.0259 107.911L23.2599 85.3551C22.6499 83.3231 20.7439 81.9031 18.6249 81.9031Z" fill="black"/>
<path d="M111.624 98.3589C111.213 98.4519 110.619 98.6119 109.865 98.8139C105.644 99.9469 97.7859 102.054 83.5289 100.47C83.2979 100.445 83.0749 100.366 82.8799 100.239C82.6439 100.086 82.3969 99.9359 82.1419 99.7879C75.7089 96.0709 67.6539 96.3319 61.1199 100.474L57.4089 102.826C57.1839 102.968 56.9258 103.049 56.6598 103.058L40.7688 103.627C39.1128 103.596 37.8119 104.072 36.9209 104.976C36.2139 105.693 35.7839 106.684 35.7709 107.628C35.7639 108.148 35.8139 108.63 35.9189 109.072C35.9609 109.177 35.9918 109.288 36.0088 109.401C36.5688 111.175 38.0849 112.206 40.3039 112.237L54.6479 112.44H70.4209C71.2499 112.44 71.9209 113.111 71.9209 113.94C71.9209 114.769 71.2499 115.44 70.4209 115.44H54.6299L40.2638 115.237C36.8708 115.189 34.3329 113.463 33.2909 110.713L24.0079 106.425C23.6929 106.279 23.4389 106.029 23.2869 105.718L11.8999 82.2389C11.4679 81.2939 10.6359 80.5589 9.60488 80.1899C8.77388 79.8929 7.43886 79.6989 5.79186 80.4519C3.10786 81.6789 2.74785 84.0889 3.57985 85.9329L15.9438 112.946L42.1009 127.925C45.2569 129.732 48.3678 131.449 51.7248 132.599C54.0918 133.41 56.6309 133.732 59.7159 133.966C66.9629 134.516 73.9299 133.567 81.3039 132.56C83.8299 132.215 86.4419 131.859 89.0369 131.574C95.0999 130.91 104.362 131.186 108.592 131.877C111.487 132.347 113.017 127.953 113.671 125.288C116.319 114.498 113.826 99.0859 111.624 98.3589Z" fill="#DDC2B5"/>
<path d="M114.615 97.206C113.318 95.304 111.851 95.27 111.096 95.417C110.536 95.527 109.897 95.698 109.088 95.916C105.091 96.988 97.681 98.976 84.204 97.526C84.022 97.413 83.835 97.301 83.644 97.191C76.242 92.913 66.996 93.199 59.515 97.94L56.1469 100.074L40.738 100.628C37.696 100.6 35.818 101.823 34.785 102.87C33.629 104.042 32.916 105.593 32.791 107.177L25.752 103.925L14.612 80.961C13.86 79.315 12.402 78.005 10.612 77.365C8.69798 76.682 6.54298 76.809 4.54298 77.724C0.717977 79.473 -0.83703 83.444 0.84797 87.175L13.416 114.633C13.546 114.918 13.763 115.155 14.034 115.31L40.609 130.528C43.765 132.335 47.148 134.202 50.752 135.437C53.718 136.453 56.816 136.755 59.487 136.958C61.011 137.074 62.53 137.125 64.043 137.125C70.044 137.125 75.955 136.318 81.708 135.534C84.215 135.192 86.807 134.838 89.363 134.557C95.1 133.927 104.15 134.192 108.107 134.839C109.844 135.123 112.338 134.788 114.379 131.583C119.526 123.506 118.317 102.636 114.615 97.206ZM108.592 131.878C104.362 131.187 95.1 130.911 89.037 131.575C86.442 131.86 83.83 132.217 81.304 132.561C73.93 133.567 66.963 134.517 59.716 133.967C56.632 133.733 54.092 133.41 51.725 132.6C48.368 131.45 45.257 129.733 42.101 127.926L15.9439 112.947L3.57996 85.934C2.74696 84.09 3.10797 81.68 5.79197 80.453C7.43897 79.7 8.77399 79.894 9.60499 80.191C10.636 80.56 11.468 81.295 11.9 82.24L23.288 105.718C23.439 106.029 23.6939 106.279 24.0089 106.425L33.292 110.713C34.334 113.463 36.872 115.189 40.265 115.237L54.631 115.44H70.425C71.254 115.44 71.925 114.769 71.925 113.94C71.925 113.111 71.254 112.44 70.425 112.44H54.652L40.308 112.237C38.089 112.206 36.573 111.175 36.013 109.401C35.995 109.288 35.965 109.178 35.923 109.072C35.818 108.631 35.767 108.148 35.775 107.628C35.788 106.685 36.218 105.693 36.925 104.976C37.817 104.072 39.117 103.596 40.773 103.627L56.664 103.058C56.93 103.049 57.188 102.968 57.413 102.826L61.124 100.474C67.658 96.332 75.713 96.071 82.146 99.788C82.401 99.935 82.6479 100.086 82.8839 100.239C83.0789 100.365 83.301 100.445 83.533 100.47C97.789 102.054 105.648 99.947 109.869 98.814C110.622 98.612 111.217 98.452 111.628 98.359C113.829 99.086 116.322 114.498 113.675 125.289C113.017 127.953 111.487 132.348 108.592 131.878Z" fill="black"/>
<path d="M48.0641 37.218L35.8271 70.199L45.4711 60.864L48.0641 70.199L59.0001 40.503L48.0641 37.218Z" fill="#DEF4C4"/>
<path d="M35.827 71.45C35.591 71.45 35.352 71.383 35.143 71.246C34.655 70.927 34.452 70.312 34.655 69.764L46.892 36.783C47.121 36.165 47.792 35.832 48.423 36.021L59.359 39.306C59.689 39.405 59.964 39.637 60.118 39.945C60.272 40.254 60.292 40.612 60.173 40.936L49.238 70.632C49.051 71.14 48.561 71.462 48.014 71.449C47.471 71.426 47.005 71.057 46.861 70.534L44.831 63.224L36.697 71.097C36.457 71.33 36.142 71.45 35.827 71.45ZM45.471 59.614C45.58 59.614 45.691 59.628 45.799 59.658C46.224 59.773 46.558 60.105 46.675 60.53L48.231 66.13L57.368 41.319L48.828 38.754L38.915 65.472L44.603 59.967C44.839 59.737 45.151 59.614 45.471 59.614Z" fill="black"/>
<path d="M69.936 37.218L82.173 70.199L72.529 60.864L69.936 70.199L59 40.503L69.936 37.218Z" fill="#DEF4C4"/>
<path d="M82.1741 71.45C81.8591 71.45 81.5441 71.33 81.3051 71.098L73.1711 63.225L71.1411 70.535C70.9961 71.058 70.5311 71.427 69.9881 71.45C69.4611 71.466 68.9521 71.141 68.7641 70.633L57.8271 40.937C57.7081 40.613 57.7271 40.255 57.8821 39.946C58.0351 39.638 58.3111 39.406 58.6411 39.307L69.5771 36.022C70.2071 35.833 70.8801 36.167 71.1081 36.784L83.3451 69.765C83.5481 70.312 83.3451 70.928 82.8571 71.247C82.6481 71.383 82.4101 71.45 82.1741 71.45ZM60.6311 41.318L69.7691 66.129L71.3251 60.529C71.4421 60.104 71.7761 59.773 72.2011 59.657C72.6271 59.539 73.0811 59.658 73.3981 59.965L79.0861 65.47L69.1731 38.752L60.6311 41.318Z" fill="black"/>
<path d="M36.7021 24.318C36.7021 22.503 40.9261 21.267 41.3741 19.593C41.8371 17.861 38.8111 14.682 39.6881 13.165C40.5781 11.627 44.8521 12.665 46.1001 11.417C47.3481 10.169 46.3101 5.89504 47.8481 5.00504C49.3641 4.12804 52.5431 7.15404 54.2751 6.69104C55.9491 6.24404 57.1851 2.02002 59.0001 2.02002C60.8151 2.02002 62.0511 6.24404 63.7251 6.69104C65.4571 7.15404 68.6361 4.12804 70.1531 5.00504C71.6911 5.89504 70.6531 10.169 71.9011 11.417C73.1491 12.665 77.4231 11.627 78.3131 13.165C79.1901 14.681 76.1641 17.86 76.6271 19.592C77.0741 21.266 81.2981 22.502 81.2981 24.317C81.2981 26.132 77.0741 27.368 76.6261 29.042C76.1631 30.774 79.1891 33.953 78.3121 35.47C77.4221 37.008 73.1481 35.97 71.8991 37.218C70.6511 38.466 71.6891 42.741 70.1511 43.63C68.6351 44.507 65.4561 41.481 63.7241 41.944C62.0501 42.391 60.8141 46.616 58.9991 46.616C57.1841 46.616 55.9481 42.392 54.2741 41.944C52.5421 41.481 49.3631 44.507 47.8461 43.63C46.3081 42.74 47.3461 38.466 46.0981 37.217C44.8501 35.969 40.5761 37.007 39.6861 35.469C38.8091 33.953 41.8351 30.774 41.3721 29.042C40.9261 27.369 36.7021 26.133 36.7021 24.318Z" fill="#6A9B31"/>
<path d="M59.0001 48.116C57.2271 48.116 56.1411 46.487 55.1831 45.049C54.8041 44.481 54.1691 43.529 53.8601 43.384C53.4581 43.396 52.5191 43.858 51.8341 44.196C50.7391 44.734 49.6081 45.292 48.5061 45.292C47.9861 45.292 47.5131 45.17 47.0981 44.93C45.5891 44.057 45.4641 42.124 45.3541 40.418C45.3091 39.718 45.2331 38.546 45.0261 38.263C44.7741 38.087 43.6021 38.011 42.9021 37.966C41.1971 37.856 39.2631 37.731 38.3901 36.222C37.5271 34.73 38.3751 33.007 39.1241 31.486C39.4391 30.844 39.9691 29.77 39.9231 29.416C39.7911 29.151 38.8391 28.516 38.2711 28.137C36.8331 27.179 35.2041 26.092 35.2041 24.319C35.2041 22.546 36.8341 21.459 38.2711 20.501C38.8391 20.122 39.7911 19.487 39.9361 19.178C39.9691 18.868 39.4401 17.794 39.1241 17.152C38.3751 15.632 37.5271 13.908 38.3901 12.416C39.2631 10.907 41.1971 10.782 42.9021 10.672C43.6031 10.627 44.7751 10.551 45.0581 10.343C45.2341 10.092 45.3101 8.91999 45.3551 8.21899C45.4651 6.51299 45.5901 4.58 47.0991 3.707C47.5141 3.467 47.9881 3.345 48.5061 3.345C49.6091 3.345 50.7391 3.90201 51.8341 4.44101C52.5191 4.77901 53.4581 5.241 53.8821 5.241C54.1701 5.108 54.8051 4.15601 55.1841 3.58801C56.1421 2.15001 57.2291 0.520996 59.0011 0.520996C60.7741 0.520996 61.8601 2.15001 62.8191 3.58801C63.1981 4.15601 63.8332 5.10801 64.1422 5.25201C64.5442 5.24001 65.4832 4.77801 66.1682 4.44101C67.2622 3.90201 68.3941 3.345 69.4961 3.345C70.0161 3.345 70.4891 3.467 70.9041 3.707C72.4131 4.58 72.5381 6.51299 72.6481 8.21799C72.6931 8.91799 72.7691 10.091 72.9761 10.374C73.2281 10.55 74.4001 10.626 75.1001 10.671C76.8051 10.781 78.7391 10.906 79.6121 12.415C80.4741 13.907 79.6271 15.63 78.8781 17.151C78.5631 17.793 78.0331 18.867 78.0791 19.221C78.2111 19.487 79.1631 20.121 79.7311 20.5C81.1691 21.458 82.7981 22.544 82.7981 24.318C82.7981 26.091 81.1681 27.177 79.7311 28.136C79.1631 28.515 78.2101 29.149 78.0661 29.459C78.0331 29.77 78.5621 30.844 78.8781 31.486C79.6271 33.007 80.4751 34.73 79.6121 36.222C78.7381 37.731 76.8051 37.856 75.0991 37.966C74.3991 38.011 73.2271 38.087 72.9441 38.294C72.7681 38.546 72.6921 39.718 72.6471 40.418C72.5371 42.124 72.4121 44.057 70.9031 44.93C70.4881 45.17 70.0141 45.292 69.4961 45.292C68.3931 45.292 67.2621 44.735 66.1671 44.196C65.4821 43.859 64.5431 43.397 64.1191 43.397C63.8311 43.53 63.1971 44.481 62.8181 45.049C61.8591 46.487 60.7731 48.116 59.0001 48.116ZM53.8801 40.396C54.1531 40.396 54.4151 40.429 54.6621 40.495C55.9871 40.85 56.8471 42.138 57.6781 43.385C58.0231 43.903 58.6421 44.831 58.9991 45.08C59.3561 44.831 59.9761 43.902 60.3211 43.384C61.1511 42.138 62.0111 40.85 63.3361 40.495C63.5831 40.429 63.8461 40.396 64.1181 40.396C65.2401 40.396 66.3851 40.959 67.4911 41.504C68.1091 41.808 68.9351 42.215 69.3811 42.282C69.5461 41.873 69.6131 40.858 69.6541 40.224C69.7521 38.71 69.8521 37.144 70.8391 36.158C71.8251 35.171 73.3912 35.07 74.9052 34.972C75.5402 34.931 76.5591 34.865 76.9671 34.699C76.9041 34.268 76.4611 33.371 76.1861 32.811C75.5111 31.439 74.8131 30.02 75.1771 28.656C75.5311 27.33 76.8211 26.471 78.0671 25.64C78.5851 25.295 79.5131 24.676 79.7621 24.319C79.5141 23.962 78.5841 23.342 78.0671 22.997C76.8211 22.166 75.5321 21.307 75.1771 19.981C74.8131 18.616 75.5111 17.198 76.1861 15.826C76.4611 15.266 76.9041 14.368 76.9671 13.938C76.5601 13.771 75.5411 13.706 74.9071 13.665C73.3921 13.567 71.8271 13.466 70.8411 12.479C69.8541 11.492 69.7521 9.92599 69.6541 8.41199C69.6131 7.77999 69.5471 6.76699 69.3831 6.35699C68.9241 6.42799 68.1061 6.831 67.4921 7.133C66.3851 7.677 65.2421 8.23999 64.1201 8.23999C63.8471 8.23999 63.5851 8.20699 63.3381 8.14099C62.0131 7.78699 61.1531 6.49801 60.3221 5.25201C59.9771 4.73401 59.3571 3.805 59.0001 3.556C58.6431 3.805 58.0231 4.73401 57.6791 5.25101C56.8481 6.49701 55.9891 7.78599 54.6631 8.14099C54.4161 8.20699 54.1531 8.23999 53.8811 8.23999C52.7591 8.23999 51.6141 7.67699 50.5081 7.13199C49.8911 6.82799 49.0651 6.422 48.6191 6.354C48.4541 6.763 48.3881 7.77799 48.3481 8.41199C48.2491 9.92599 48.1491 11.492 47.1621 12.478C46.1751 13.465 44.6091 13.566 43.0961 13.664C42.4601 13.705 41.4421 13.771 41.0341 13.937C41.0971 14.367 41.5401 15.265 41.8151 15.825C42.4901 17.197 43.1881 18.615 42.8241 19.98C42.4691 21.306 41.1811 22.165 39.9341 22.996C39.4161 23.341 38.4871 23.961 38.2381 24.318C38.4871 24.675 39.4171 25.295 39.9341 25.64C41.1801 26.471 42.4681 27.329 42.8241 28.655C43.1881 30.021 42.4901 31.439 41.8151 32.81C41.5391 33.37 41.0971 34.268 41.0341 34.698C41.4401 34.865 42.4601 34.93 43.0941 34.971C44.6091 35.069 46.1741 35.17 47.1601 36.157C48.1471 37.144 48.2481 38.709 48.3461 40.223C48.3871 40.855 48.4531 41.869 48.6171 42.279C49.0771 42.208 49.8951 41.805 50.5081 41.504C51.6141 40.959 52.7581 40.396 53.8801 40.396Z" fill="black"/>
<path d="M58.9999 38.1601C66.6447 38.1601 72.8419 31.9628 72.8419 24.3181C72.8419 16.6733 66.6447 10.4761 58.9999 10.4761C51.3552 10.4761 45.158 16.6733 45.158 24.3181C45.158 31.9628 51.3552 38.1601 58.9999 38.1601Z" fill="#DEF4C4"/>
<path d="M58.9999 39.4091C50.6789 39.4091 43.9089 32.6391 43.9089 24.3181C43.9089 15.9961 50.6789 9.22607 58.9999 9.22607C67.3209 9.22607 74.0919 15.9961 74.0919 24.3181C74.0909 32.6391 67.3209 39.4091 58.9999 39.4091ZM58.9999 11.7261C52.0579 11.7261 46.4089 17.3741 46.4089 24.3181C46.4089 31.2611 52.0569 36.9091 58.9999 36.9091C65.9429 36.9091 71.5919 31.2611 71.5919 24.3181C71.5909 17.3751 65.9429 11.7261 58.9999 11.7261Z" fill="black"/>
<path d="M59 33.171C63.8894 33.171 67.853 29.2073 67.853 24.318C67.853 19.4286 63.8894 15.465 59 15.465C54.1106 15.465 50.147 19.4286 50.147 24.318C50.147 29.2073 54.1106 33.171 59 33.171Z" fill="#6A9B31"/>
<path d="M59 34.421C53.43 34.421 48.897 29.889 48.897 24.318C48.897 18.747 53.429 14.215 59 14.215C64.571 14.215 69.104 18.747 69.104 24.318C69.104 29.889 64.571 34.421 59 34.421ZM59 16.715C54.808 16.715 51.397 20.126 51.397 24.318C51.397 28.51 54.807 31.921 59 31.921C63.193 31.921 66.604 28.51 66.604 24.318C66.603 20.126 63.192 16.715 59 16.715Z" fill="black"/>
</svg>
