<svg width="118" height="136" viewBox="0 0 118 136" fill="none" xmlns="http://www.w3.org/2000/svg">
<path d="M60.1356 64.8087C74.9606 58.6679 82.0004 41.6717 75.8596 26.8468C69.7188 12.0218 52.7227 4.98189 37.8977 11.1227C23.0727 17.2636 16.0328 34.2597 22.1737 49.0847C28.3145 63.9097 45.3107 70.9495 60.1356 64.8087Z" fill="#6A9B31"/>
<path d="M48.9942 68.5331C32.1462 68.5331 18.4402 54.826 18.4402 37.979C18.4402 21.132 32.1462 7.42505 48.9942 7.42505C65.8422 7.42505 79.5482 21.132 79.5482 37.979C79.5482 54.827 65.8412 68.5331 48.9942 68.5331ZM48.9942 10.426C33.8012 10.426 21.4402 22.786 21.4402 37.98C21.4402 53.173 33.8002 65.534 48.9942 65.534C64.1882 65.534 76.5482 53.174 76.5482 37.98C76.5482 22.786 64.1872 10.426 48.9942 10.426Z" fill="black"/>
<path d="M64.2016 53.2001C72.6048 44.7969 72.6048 31.1726 64.2016 22.7694C55.7983 14.3661 42.174 14.3661 33.7708 22.7694C25.3676 31.1726 25.3676 44.7969 33.7708 53.2001C42.174 61.6033 55.7983 61.6033 64.2016 53.2001Z" fill="#6A9B31"/>
<path d="M48.9941 60.9971C36.3021 60.9971 25.9761 50.6711 25.9761 37.9791C25.9761 25.2871 36.3011 14.9611 48.9941 14.9611C61.6871 14.9611 72.0121 25.2871 72.0121 37.9791C72.0111 50.6721 61.6861 60.9971 48.9941 60.9971ZM48.9941 17.9611C37.9561 17.9611 28.9761 26.9411 28.9761 37.9791C28.9761 49.0171 37.9551 57.9971 48.9941 57.9971C60.0331 57.9971 69.0121 49.0171 69.0121 37.9791C69.0111 26.9411 60.0321 17.9611 48.9941 17.9611Z" fill="black"/>
<path d="M58.5065 47.5051C63.7645 42.2472 63.7645 33.7223 58.5065 28.4644C53.2485 23.2064 44.7237 23.2064 39.4657 28.4644C34.2077 33.7223 34.2077 42.2472 39.4657 47.5051C44.7237 52.7631 53.2485 52.7631 58.5065 47.5051Z" fill="#6A9B31"/>
<path d="M48.9941 52.9441C40.7421 52.9441 34.0291 46.2311 34.0291 37.9801C34.0291 29.7291 40.7421 23.0161 48.9941 23.0161C57.2461 23.0161 63.959 29.7291 63.959 37.9801C63.959 46.2311 57.2461 52.9441 48.9941 52.9441ZM48.9941 26.0151C42.3961 26.0151 37.0291 31.3821 37.0291 37.9791C37.0291 44.5761 42.3961 49.9431 48.9941 49.9431C55.5921 49.9431 60.959 44.5761 60.959 37.9791C60.959 31.3821 55.5911 26.0151 48.9941 26.0151Z" fill="black"/>
<path d="M43.1792 37.9791C43.1792 34.7671 45.7822 32.1641 48.9942 32.1641C52.2062 32.1641 54.8092 34.7671 54.8092 37.9791C54.8092 41.1901 52.2062 43.7941 48.9942 43.7941C45.7822 43.7941 43.1792 41.1911 43.1792 37.9791Z" fill="#DEF4C4"/>
<path d="M48.9942 45.2941C44.9612 45.2941 41.6792 42.0131 41.6792 37.9791C41.6792 33.9451 44.9602 30.6641 48.9942 30.6641C53.0282 30.6641 56.3082 33.9451 56.3082 37.9791C56.3082 42.0131 53.0272 45.2941 48.9942 45.2941ZM48.9942 33.6641C46.6152 33.6641 44.6792 35.6001 44.6792 37.9791C44.6792 40.3581 46.6152 42.2941 48.9942 42.2941C51.3732 42.2941 53.3082 40.3581 53.3082 37.9791C53.3082 35.6001 51.3732 33.6641 48.9942 33.6641Z" fill="black"/>
<path d="M78.0471 19.321L80.4621 9.93104L90.8761 3.13904L88.6121 12.648L78.0471 19.321Z" fill="#DEF4C4"/>
<path d="M78.0481 20.821C77.7381 20.821 77.4271 20.725 77.1651 20.533C76.6681 20.171 76.4421 19.542 76.5951 18.947L79.0101 9.55703C79.1041 9.19403 79.3291 8.87903 79.6441 8.67403L90.0581 1.88203C90.5711 1.54703 91.2381 1.55803 91.7411 1.91203C92.2431 2.26603 92.4792 2.88903 92.3372 3.48603L90.0722 12.995C89.9812 13.376 89.7451 13.706 89.4141 13.915L78.8501 20.588C78.6031 20.743 78.3251 20.821 78.0481 20.821ZM81.7702 10.869L80.4421 16.034L87.2951 11.705L88.5471 6.44903L81.7702 10.869Z" fill="black"/>
<path d="M78.0471 19.321L87.6631 21.186L98.1941 14.577L88.6121 12.6479L78.0471 19.321Z" fill="#DEF4C4"/>
<path d="M87.6631 22.686C87.5671 22.686 87.4731 22.677 87.3771 22.659L77.7621 20.794C77.1591 20.677 76.688 20.203 76.574 19.599C76.461 18.994 76.727 18.382 77.248 18.054L87.8121 11.381C88.1371 11.174 88.5341 11.103 88.9091 11.178L98.491 13.108C99.093 13.23 99.5601 13.705 99.6711 14.309C99.7811 14.913 99.513 15.523 98.992 15.85L88.4611 22.458C88.2191 22.607 87.9431 22.686 87.6631 22.686ZM82.048 18.569L87.3671 19.601L94.2121 15.306L88.9051 14.238L82.048 18.569Z" fill="black"/>
<path d="M48.995 39.4791C48.502 39.4791 48.018 39.2361 47.732 38.7901C47.284 38.0931 47.486 37.1651 48.183 36.7171L77.237 18.0581C77.933 17.6111 78.861 17.8111 79.309 18.5101C79.757 19.2071 79.555 20.1351 78.858 20.5831L49.804 39.2421C49.554 39.4031 49.273 39.4791 48.995 39.4791Z" fill="black"/>
<path d="M16.868 79.107C13.514 80.113 11.6101 83.6481 12.6161 87.0031L19.3821 109.559C20.3881 112.914 23.9231 114.817 27.2781 113.811C30.6321 112.805 32.5361 109.27 31.5301 105.915L24.764 83.359C23.758 80.005 20.222 78.101 16.868 79.107Z" fill="#DDC2B5"/>
<path d="M25.453 115.58C22.019 115.58 18.932 113.281 17.945 109.99L11.179 87.434C9.93701 83.292 12.295 78.913 16.437 77.671C17.171 77.45 17.93 77.338 18.692 77.338C22.126 77.338 25.214 79.637 26.2 82.928L32.966 105.484C33.569 107.49 33.353 109.61 32.359 111.455C31.366 113.299 29.715 114.646 27.708 115.248C26.973 115.468 26.215 115.58 25.453 115.58ZM18.692 80.338C18.223 80.338 17.754 80.407 17.299 80.544C14.742 81.311 13.286 84.015 14.053 86.572L20.819 109.128C21.428 111.161 23.335 112.58 25.454 112.58C25.923 112.58 26.392 112.511 26.847 112.375C28.085 112.003 29.106 111.171 29.718 110.033C30.331 108.894 30.464 107.585 30.093 106.347L23.327 83.791C22.718 81.758 20.811 80.338 18.692 80.338Z" fill="black"/>
<path d="M111.692 96.7941C111.281 96.8871 110.687 97.0461 109.933 97.2491C105.712 98.3821 97.854 100.489 83.598 98.9051C83.367 98.8801 83.144 98.8011 82.949 98.6741C82.713 98.5211 82.466 98.3711 82.211 98.2231C75.778 94.5061 67.7231 94.7671 61.1891 98.9091L57.4781 101.261C57.2531 101.403 56.995 101.484 56.729 101.493L40.838 102.062C39.182 102.031 37.881 102.507 36.99 103.411C36.283 104.128 35.8531 105.119 35.8401 106.063C35.8331 106.583 35.883 107.065 35.988 107.507C36.031 107.612 36.061 107.723 36.078 107.836C36.638 109.61 38.154 110.641 40.373 110.672L54.717 110.875H70.49C71.319 110.875 71.99 111.546 71.99 112.375C71.99 113.204 71.319 113.875 70.49 113.875H54.696L40.33 113.672C36.937 113.624 34.399 111.897 33.357 109.148L24.074 104.86C23.759 104.714 23.5051 104.464 23.3531 104.153L11.9651 80.6751C11.5331 79.7301 10.701 78.9951 9.67001 78.6261C8.83901 78.3291 7.50402 78.1351 5.85702 78.8881C3.17302 80.1151 2.81305 82.5251 3.64505 84.3691L16.009 111.382L42.166 126.361C45.322 128.168 48.433 129.885 51.79 131.035C54.157 131.846 56.696 132.168 59.781 132.402C67.028 132.952 73.995 132.003 81.369 130.996C83.895 130.651 86.507 130.295 89.102 130.01C95.166 129.346 104.427 129.622 108.657 130.313C111.552 130.783 113.082 126.389 113.736 123.724C116.386 112.933 113.893 97.5211 111.692 96.7941Z" fill="#DDC2B5"/>
<path d="M114.682 95.641C113.385 93.739 111.918 93.704 111.164 93.852C110.603 93.962 109.965 94.133 109.156 94.351C105.159 95.423 97.749 97.411 84.272 95.961C84.09 95.848 83.903 95.736 83.712 95.626C76.31 91.348 67.0651 91.634 59.5831 96.375L56.2151 98.509L40.8061 99.063C37.7641 99.035 35.8861 100.258 34.8531 101.305C33.6971 102.477 32.9841 104.028 32.8591 105.612L25.8201 102.361L14.6801 79.397C13.9271 77.752 12.4691 76.441 10.6801 75.801C8.76606 75.118 6.61109 75.245 4.61109 76.16C0.786093 77.909 -0.768915 81.88 0.916085 85.611L13.4841 113.069C13.6141 113.354 13.8311 113.59 14.1021 113.746L40.6771 128.964C43.8331 130.771 47.2161 132.638 50.8201 133.873C53.7861 134.889 56.8841 135.191 59.5551 135.394C61.0791 135.51 62.5971 135.561 64.1111 135.561C70.1121 135.561 76.0231 134.754 81.7761 133.97C84.2831 133.628 86.8751 133.274 89.4311 132.993C95.1681 132.363 104.218 132.628 108.175 133.275C109.912 133.559 112.406 133.224 114.448 130.019C119.594 121.941 118.385 101.071 114.682 95.641ZM108.66 130.313C104.43 129.622 95.168 129.346 89.105 130.01C86.51 130.295 83.8981 130.652 81.3721 130.996C73.9981 132.002 67.0311 132.952 59.7841 132.402C56.6991 132.168 54.1601 131.845 51.7931 131.035C48.4361 129.885 45.3251 128.168 42.1691 126.361L16.0121 111.382L3.64808 84.369C2.81508 82.525 3.17605 80.115 5.86005 78.888C7.50605 78.135 8.84104 78.329 9.67304 78.626C10.704 78.995 11.5361 79.73 11.9681 80.675L23.3561 104.153C23.5071 104.464 23.7621 104.714 24.0771 104.86L33.3601 109.148C34.4021 111.897 36.9401 113.624 40.3331 113.672L54.699 113.875H70.493C71.322 113.875 71.993 113.204 71.993 112.375C71.993 111.546 71.322 110.875 70.493 110.875H54.72L40.376 110.672C38.157 110.641 36.6411 109.61 36.0811 107.836C36.0631 107.723 36.0331 107.613 35.9911 107.507C35.8861 107.066 35.8351 106.583 35.8431 106.063C35.8561 105.12 36.286 104.128 36.993 103.411C37.885 102.507 39.1851 102.031 40.8411 102.062L56.7321 101.493C56.9981 101.484 57.2561 101.403 57.4811 101.261L61.1921 98.909C67.7261 94.767 75.7811 94.506 82.2141 98.223C82.4691 98.37 82.7161 98.521 82.9521 98.674C83.1471 98.8 83.3701 98.88 83.6011 98.905C97.8571 100.489 105.716 98.382 109.936 97.249C110.689 97.047 111.284 96.887 111.695 96.794C113.896 97.521 116.389 112.933 113.742 123.724C113.085 126.388 111.554 130.783 108.66 130.313Z" fill="black"/>
</svg>
