<svg width="118" height="141" viewBox="0 0 118 141" fill="none" xmlns="http://www.w3.org/2000/svg">
<path d="M16.767 83.672C13.413 84.678 11.509 88.213 12.515 91.568L19.281 114.124C20.287 117.478 23.822 119.382 27.177 118.376C30.531 117.37 32.435 113.835 31.429 110.48L24.663 87.924C23.656 84.57 20.121 82.666 16.767 83.672Z" fill="#DDC2B5"/>
<path d="M25.3529 120.145C21.9189 120.145 18.8309 117.846 17.8439 114.555L11.0779 91.9991C9.83594 87.8571 12.1939 83.477 16.3359 82.235C17.0699 82.015 17.8289 81.9031 18.5909 81.9031C22.0249 81.9031 25.1129 84.2011 26.0999 87.4931L32.8659 110.049C34.1079 114.191 31.7499 118.57 27.6079 119.812C26.8729 120.033 26.1139 120.145 25.3529 120.145ZM18.5909 84.9031C18.1219 84.9031 17.6529 84.9721 17.1969 85.1091C14.6399 85.8761 13.1839 88.5801 13.9509 91.1371L20.7169 113.693C21.3269 115.726 23.2339 117.145 25.3529 117.145C25.8219 117.145 26.2909 117.076 26.7469 116.939C29.3039 116.172 30.7599 113.468 29.9929 110.911L23.2269 88.3551C22.6159 86.3231 20.7099 84.9031 18.5909 84.9031Z" fill="black"/>
<path d="M111.591 101.359C111.18 101.452 110.586 101.612 109.832 101.814C105.611 102.947 97.753 105.054 83.497 103.47C83.266 103.445 83.043 103.366 82.848 103.239C82.612 103.086 82.3649 102.936 82.1099 102.788C75.6769 99.071 67.622 99.332 61.088 103.474L57.377 105.826C57.152 105.968 56.8939 106.049 56.6279 106.058L40.737 106.627C39.081 106.596 37.78 107.072 36.889 107.976C36.182 108.693 35.752 109.684 35.739 110.628C35.732 111.148 35.782 111.63 35.887 112.072C35.93 112.177 35.9599 112.288 35.9769 112.401C36.5369 114.175 38.053 115.206 40.272 115.237L54.616 115.44H70.389C71.218 115.44 71.889 116.111 71.889 116.94C71.889 117.769 71.218 118.44 70.389 118.44H54.595L40.229 118.237C36.836 118.189 34.298 116.463 33.256 113.713L23.9729 109.425C23.6579 109.279 23.404 109.029 23.252 108.718L11.864 85.24C11.432 84.295 10.6 83.56 9.56896 83.191C8.73796 82.894 7.40297 82.7 5.75597 83.453C3.07197 84.68 2.71196 87.09 3.54396 88.934L15.9079 115.947L42.065 130.926C45.221 132.733 48.332 134.45 51.689 135.6C54.056 136.411 56.595 136.733 59.68 136.967C66.927 137.517 73.894 136.568 81.268 135.561C83.794 135.216 86.406 134.86 89.001 134.575C95.065 133.911 104.326 134.187 108.556 134.878C111.451 135.348 112.981 130.954 113.635 128.289C116.285 117.498 113.792 102.086 111.591 101.359Z" fill="#DDC2B5"/>
<path d="M114.581 100.206C113.284 98.304 111.817 98.27 111.063 98.417C110.502 98.527 109.864 98.698 109.055 98.916C105.058 99.988 97.648 101.976 84.171 100.526C83.989 100.413 83.802 100.301 83.611 100.191C76.209 95.913 66.964 96.199 59.482 100.94L56.114 103.074L40.705 103.628C37.663 103.6 35.785 104.823 34.752 105.87C33.596 107.042 32.883 108.593 32.758 110.177L25.719 106.925L14.579 83.961C13.827 82.315 12.369 81.005 10.579 80.365C8.66502 79.682 6.51002 79.809 4.51002 80.724C0.685018 82.473 -0.869989 86.444 0.815011 90.175L13.383 117.633C13.513 117.918 13.73 118.155 14.001 118.31L40.576 133.528C43.732 135.335 47.115 137.202 50.719 138.437C53.685 139.453 56.783 139.755 59.454 139.958C60.978 140.074 62.496 140.125 64.01 140.125C70.011 140.125 75.922 139.318 81.675 138.534C84.182 138.192 86.774 137.838 89.33 137.557C95.067 136.927 104.117 137.192 108.074 137.839C109.811 138.123 112.305 137.788 114.346 134.583C119.493 126.506 118.284 105.636 114.581 100.206ZM108.559 134.878C104.329 134.187 95.067 133.911 89.004 134.575C86.409 134.86 83.797 135.217 81.271 135.561C73.897 136.567 66.93 137.517 59.683 136.967C56.598 136.733 54.059 136.41 51.692 135.6C48.335 134.45 45.224 132.733 42.068 130.926L15.911 115.947L3.54701 88.934C2.71401 87.09 3.07501 84.68 5.75901 83.453C7.40601 82.7 8.74 82.894 9.572 83.191C10.603 83.56 11.435 84.295 11.867 85.24L23.255 108.718C23.406 109.029 23.661 109.279 23.976 109.425L33.259 113.713C34.301 116.463 36.839 118.189 40.232 118.237L54.598 118.44H70.392C71.221 118.44 71.892 117.769 71.892 116.94C71.892 116.111 71.221 115.44 70.392 115.44H54.619L40.275 115.237C38.056 115.206 36.54 114.175 35.98 112.401C35.962 112.288 35.932 112.178 35.89 112.072C35.785 111.631 35.734 111.148 35.742 110.628C35.755 109.685 36.185 108.693 36.892 107.976C37.784 107.072 39.084 106.596 40.74 106.627L56.631 106.058C56.897 106.049 57.155 105.968 57.38 105.826L61.091 103.474C67.625 99.332 75.68 99.071 82.113 102.788C82.368 102.935 82.614 103.086 82.851 103.239C83.046 103.365 83.269 103.445 83.5 103.47C97.756 105.054 105.615 102.947 109.835 101.814C110.588 101.612 111.183 101.452 111.594 101.359C113.795 102.086 116.288 117.498 113.641 128.289C112.984 130.953 111.453 135.348 108.559 134.878Z" fill="black"/>
<path d="M66.1977 53.5257L70.6638 50.6354L65.3514 42.4267L60.8853 45.3171L66.1977 53.5257Z" fill="#6A9B31"/>
<path d="M66.183 55.0151C66.079 55.0151 65.973 55.0041 65.869 54.9821C65.48 54.8981 65.14 54.6641 64.924 54.3301L59.611 46.1211C59.162 45.4261 59.36 44.4971 60.055 44.0471L64.521 41.1571C64.855 40.9411 65.258 40.8661 65.651 40.9501C66.04 41.0331 66.38 41.2681 66.596 41.6021L71.909 49.8111C72.358 50.5061 72.16 51.4351 71.465 51.8851L66.999 54.7751C66.753 54.9321 66.47 55.0151 66.183 55.0151ZM62.944 45.7501L66.627 51.4401L68.574 50.1801L64.891 44.4901L62.944 45.7501Z" fill="black"/>
<path d="M75.399 32.647C78.0395 20.3225 70.1892 8.19101 57.8648 5.55042C45.5404 2.90983 33.4089 10.7601 30.7683 23.0846C28.1277 35.409 35.978 47.5405 48.3024 50.1811C60.6268 52.8217 72.7584 44.9714 75.399 32.647Z" fill="#DEF4C4"/>
<path d="M53.1 52.17H53.0989C44.8019 52.17 37.1599 48.016 32.6589 41.06C25.3719 29.8 28.604 14.712 39.864 7.42603C43.812 4.87103 48.3739 3.52002 53.0559 3.52002C61.3539 3.52002 68.995 7.67304 73.497 14.63C80.782 25.89 77.5509 40.978 66.2919 48.264C62.3439 50.819 57.781 52.17 53.1 52.17ZM53.0559 6.52002C48.9529 6.52002 44.954 7.70403 41.493 9.94403C31.622 16.331 28.7889 29.558 35.1769 39.429C39.1229 45.528 45.8239 49.169 53.0989 49.169H53.1C57.202 49.169 61.201 47.985 64.661 45.745C74.532 39.357 77.3649 26.13 70.9769 16.26C67.0309 10.161 60.3309 6.52002 53.0559 6.52002Z" fill="black"/>
<path d="M67.9173 36.9927C72.9784 28.8027 70.442 18.0605 62.2519 12.9993C54.0618 7.93819 43.3196 10.4747 38.2585 18.6647C33.1973 26.8548 35.7338 37.597 43.9239 42.6581C52.1139 47.7193 62.8562 45.1828 67.9173 36.9927Z" fill="#6A9B31"/>
<path d="M53.0948 46.779H53.0938C46.6348 46.778 40.6878 43.546 37.1828 38.131C31.5118 29.367 34.0278 17.623 42.7908 11.951C45.8638 9.96199 49.4148 8.91101 53.0608 8.91101C59.5188 8.91101 65.4668 12.144 68.9718 17.559C74.6428 26.323 72.1268 38.067 63.3638 43.739C60.2898 45.728 56.7388 46.779 53.0948 46.779ZM53.0598 11.91C49.9948 11.91 47.0068 12.795 44.4208 14.469C37.0448 19.242 34.9278 29.125 39.7008 36.501C42.6488 41.058 47.6558 43.779 53.0928 43.779H53.0938C56.1588 43.779 59.1458 42.894 61.7318 41.22C69.1078 36.447 71.2248 26.564 66.4518 19.188C63.5028 14.632 58.4968 11.91 53.0598 11.91Z" fill="black"/>
<path d="M85.7801 78.994L85.9571 78.879C87.7071 77.747 88.2071 75.411 87.0751 73.661L71.7191 49.932L65.2061 54.147L80.5621 77.876C81.6941 79.626 84.0301 80.126 85.7801 78.994Z" fill="#DEF4C4"/>
<path d="M83.733 81.1C81.935 81.1 80.279 80.2 79.302 78.692L63.945 54.9631C63.729 54.6291 63.655 54.2231 63.738 53.8341C63.821 53.4451 64.056 53.106 64.39 52.889L70.904 48.674C71.595 48.224 72.528 48.4221 72.978 49.1181L88.334 72.847C89.913 75.288 89.212 78.559 86.771 80.139L86.591 80.255C85.738 80.807 84.749 81.1 83.733 81.1ZM67.279 54.592L81.821 77.062C82.242 77.712 82.957 78.1011 83.733 78.1011C84.169 78.1011 84.594 77.975 84.963 77.736L85.143 77.62C86.194 76.94 86.496 75.53 85.815 74.477L71.274 52.007L67.279 54.592Z" fill="black"/>
<path d="M77.94 73.8167L84.4529 69.6018L74.3154 53.9376L67.8026 58.1525L77.94 73.8167Z" fill="#6A9B31"/>
<path d="M77.926 75.303C77.822 75.303 77.716 75.292 77.612 75.27C77.223 75.187 76.8839 74.952 76.6669 74.618L66.5289 58.953C66.0799 58.258 66.2779 57.329 66.9729 56.879L73.4859 52.664C73.8199 52.448 74.223 52.372 74.616 52.457C75.005 52.54 75.344 52.775 75.561 53.109L85.699 68.774C86.148 69.469 85.95 70.398 85.255 70.848L78.742 75.063C78.496 75.22 78.213 75.303 77.926 75.303ZM69.862 58.582L78.37 71.728L82.364 69.143L73.8559 55.996L69.862 58.582Z" fill="black"/>
<path d="M53.077 18.9231L55.976 24.7971L62.458 25.7391L57.768 30.3111L58.875 36.7671L53.077 33.7191L47.279 36.7671L48.387 30.3111L43.696 25.7391L50.178 24.7971L53.077 18.9231Z" fill="#6A9B31"/>
<path d="M58.875 38.017C58.676 38.017 58.477 37.97 58.293 37.873L53.077 35.13L47.861 37.873C47.439 38.095 46.93 38.058 46.545 37.778C46.159 37.498 45.967 37.025 46.047 36.555L47.044 30.747L42.824 26.633C42.483 26.301 42.36 25.804 42.508 25.352C42.654 24.899 43.046 24.57 43.517 24.501L49.349 23.653L51.956 18.368C52.167 17.941 52.602 17.671 53.077 17.671C53.553 17.671 53.987 17.941 54.198 18.368L56.806 23.653L62.637 24.501C63.108 24.569 63.499 24.899 63.646 25.352C63.794 25.805 63.671 26.301 63.33 26.633L59.11 30.747L60.107 36.555C60.187 37.024 59.995 37.498 59.609 37.778C59.392 37.936 59.134 38.017 58.875 38.017ZM53.077 32.469C53.277 32.469 53.476 32.517 53.659 32.613L57.215 34.483L56.535 30.523C56.466 30.117 56.6 29.704 56.895 29.417L59.771 26.612L55.796 26.034C55.389 25.975 55.037 25.719 54.855 25.35L53.077 21.747L51.3 25.35C51.117 25.719 50.766 25.974 50.359 26.034L46.383 26.612L49.259 29.416C49.554 29.703 49.689 30.117 49.619 30.522L48.939 34.482L52.495 32.612C52.678 32.517 52.877 32.469 53.077 32.469Z" fill="black"/>
</svg>
