<svg width="118" height="137" viewBox="0 0 118 137" fill="none" xmlns="http://www.w3.org/2000/svg">
<path d="M16.6283 80.151C13.2743 81.157 11.3703 84.692 12.3763 88.047L19.1423 110.603C20.1483 113.957 23.6833 115.861 27.0383 114.855C30.3923 113.849 32.2963 110.314 31.2903 106.959L24.5243 84.403C23.5173 81.049 19.9823 79.145 16.6283 80.151Z" fill="#DDC2B5"/>
<path d="M25.2123 116.624C21.7783 116.624 18.6913 114.325 17.7043 111.034L10.9383 88.4781C9.69629 84.3361 12.0543 79.9561 16.1963 78.7141C16.9303 78.4941 17.6893 78.3821 18.4513 78.3821C21.8853 78.3821 24.9723 80.6811 25.9593 83.9721L32.7253 106.528C33.3283 108.534 33.1123 110.654 32.1193 112.499C31.1263 114.343 29.4743 115.69 27.4683 116.292C26.7333 116.512 25.9743 116.624 25.2123 116.624ZM18.4523 81.3821C17.9833 81.3821 17.5143 81.4511 17.0583 81.5881C14.5013 82.3551 13.0453 85.0591 13.8123 87.6161L20.5782 110.172C21.1872 112.205 23.0943 113.624 25.2133 113.624C25.6823 113.624 26.1513 113.555 26.6073 113.418C27.8453 113.046 28.8663 112.214 29.4783 111.076C30.0913 109.937 30.2243 108.628 29.8533 107.39L23.0873 84.8341C22.4773 82.8021 20.5713 81.3821 18.4523 81.3821Z" fill="black"/>
<path d="M111.451 97.8379C111.04 97.9309 110.446 98.0909 109.692 98.2929C105.471 99.4259 97.6133 101.533 83.3563 99.9489C83.1253 99.9239 82.9023 99.8449 82.7073 99.7179C82.4713 99.5649 82.2243 99.4149 81.9693 99.2669C75.5363 95.5499 67.4813 95.8109 60.9473 99.9529L57.2363 102.305C57.0113 102.447 56.7532 102.528 56.4872 102.537L40.5962 103.106C38.9402 103.075 37.6393 103.551 36.7483 104.455C36.0413 105.172 35.6113 106.163 35.5983 107.107C35.5913 107.627 35.6413 108.109 35.7463 108.551C35.7883 108.656 35.8192 108.767 35.8362 108.88C36.3962 110.654 37.9123 111.685 40.1313 111.716L54.4753 111.919H70.2483C71.0773 111.919 71.7483 112.59 71.7483 113.419C71.7483 114.248 71.0773 114.919 70.2483 114.919H54.4573L40.0912 114.716C36.6982 114.668 34.1603 112.942 33.1183 110.192L23.8353 105.904C23.5203 105.758 23.2662 105.508 23.1142 105.197L11.7273 81.7179C11.2953 80.7729 10.4633 80.0379 9.43227 79.6689C8.60127 79.3719 7.26625 79.1779 5.61925 79.9309C2.93525 81.1579 2.57525 83.5679 3.40725 85.4119L15.7712 112.425L41.9283 127.404C45.0843 129.211 48.1952 130.928 51.5522 132.078C53.9192 132.889 56.4583 133.211 59.5433 133.445C66.7903 133.995 73.7573 133.046 81.1313 132.039C83.6573 131.694 86.2693 131.338 88.8643 131.053C94.9273 130.389 104.189 130.665 108.419 131.356C111.314 131.826 112.844 127.432 113.498 124.767C116.146 113.977 113.653 98.5649 111.451 97.8379Z" fill="#DDC2B5"/>
<path d="M114.442 96.685C113.145 94.783 111.678 94.749 110.923 94.896C110.363 95.006 109.724 95.177 108.915 95.395C104.918 96.467 97.5083 98.455 84.0313 97.005C83.8493 96.892 83.6624 96.78 83.4714 96.67C76.0694 92.392 66.8234 92.678 59.3424 97.419L55.9743 99.553L40.5653 100.107C37.5233 100.079 35.6453 101.302 34.6123 102.349C33.4563 103.521 32.7434 105.072 32.6184 106.656L25.5794 103.404L14.4394 80.44C13.6874 78.794 12.2294 77.484 10.4394 76.844C8.52537 76.161 6.37037 76.288 4.37037 77.203C0.54537 78.952 -1.00964 82.923 0.675363 86.654L13.2434 114.112C13.3734 114.397 13.5904 114.634 13.8614 114.789L40.4364 130.007C43.5924 131.814 46.9754 133.681 50.5794 134.916C53.5454 135.932 56.6434 136.234 59.3144 136.437C60.8384 136.553 62.3574 136.604 63.8704 136.604C69.8714 136.604 75.7824 135.797 81.5354 135.013C84.0424 134.671 86.6343 134.317 89.1903 134.036C94.9273 133.406 103.977 133.671 107.934 134.318C109.671 134.602 112.165 134.267 114.206 131.062C119.353 122.985 118.144 102.115 114.442 96.685ZM108.419 131.357C104.189 130.666 94.9274 130.39 88.8644 131.054C86.2694 131.339 83.6574 131.696 81.1314 132.04C73.7574 133.046 66.7904 133.996 59.5434 133.446C56.4594 133.212 53.9193 132.889 51.5523 132.079C48.1953 130.929 45.0844 129.212 41.9284 127.405L15.7713 112.426L3.40736 85.413C2.57436 83.569 2.93536 81.159 5.61936 79.932C7.26636 79.179 8.60138 79.373 9.43238 79.67C10.4634 80.039 11.2954 80.774 11.7274 81.719L23.1154 105.197C23.2664 105.508 23.5213 105.758 23.8363 105.904L33.1194 110.192C34.1614 112.942 36.6994 114.668 40.0924 114.716L54.4584 114.919H70.2524C71.0814 114.919 71.7524 114.248 71.7524 113.419C71.7524 112.59 71.0814 111.919 70.2524 111.919H54.4793L40.1354 111.716C37.9164 111.685 36.4004 110.654 35.8404 108.88C35.8224 108.767 35.7923 108.657 35.7503 108.551C35.6453 108.11 35.5944 107.627 35.6024 107.107C35.6154 106.164 36.0454 105.172 36.7524 104.455C37.6444 103.551 38.9444 103.075 40.6004 103.106L56.4914 102.537C56.7574 102.528 57.0154 102.447 57.2404 102.305L60.9514 99.953C67.4854 95.811 75.5404 95.55 81.9734 99.267C82.2284 99.414 82.4753 99.565 82.7113 99.718C82.9063 99.844 83.1284 99.924 83.3604 99.949C97.6164 101.533 105.475 99.426 109.696 98.293C110.449 98.091 111.044 97.931 111.455 97.838C113.656 98.565 116.149 113.977 113.502 124.768C112.844 127.432 111.314 131.827 108.419 131.357Z" fill="black"/>
<path d="M47.8913 36.697L35.6543 69.678L45.2983 60.343L47.8913 69.678L58.8273 39.982L47.8913 36.697Z" fill="#DEF4C4"/>
<path d="M35.6544 70.929C35.4184 70.929 35.1794 70.862 34.9704 70.725C34.4824 70.406 34.2794 69.791 34.4824 69.243L46.7194 36.262C46.9484 35.644 47.6194 35.311 48.2504 35.5L59.1864 38.785C59.5164 38.884 59.7914 39.116 59.9454 39.424C60.0994 39.733 60.1194 40.091 60.0004 40.415L49.0654 70.111C48.8784 70.619 48.3884 70.941 47.8414 70.928C47.2984 70.905 46.8324 70.536 46.6884 70.013L44.6584 62.703L36.5244 70.576C36.2844 70.809 35.9694 70.929 35.6544 70.929ZM45.2984 59.093C45.4074 59.093 45.5184 59.107 45.6264 59.137C46.0514 59.252 46.3854 59.584 46.5024 60.009L48.0584 65.609L57.1954 40.798L48.6554 38.233L38.7424 64.951L44.4304 59.446C44.6664 59.216 44.9784 59.093 45.2984 59.093Z" fill="black"/>
<path d="M69.7631 36.697L82.0001 69.678L72.3561 60.343L69.7631 69.678L58.8271 39.982L69.7631 36.697Z" fill="#DEF4C4"/>
<path d="M82.0013 70.929C81.6863 70.929 81.3712 70.809 81.1322 70.577L72.9983 62.704L70.9682 70.014C70.8232 70.537 70.3582 70.906 69.8152 70.929C69.2882 70.945 68.7792 70.62 68.5912 70.112L57.6543 40.416C57.5353 40.092 57.5543 39.734 57.7093 39.425C57.8623 39.117 58.1382 38.885 58.4682 38.786L69.4043 35.501C70.0343 35.312 70.7072 35.646 70.9352 36.263L83.1722 69.244C83.3752 69.791 83.1722 70.407 82.6842 70.726C82.4752 70.862 82.2373 70.929 82.0013 70.929ZM60.4582 40.797L69.5962 65.608L71.1523 60.008C71.2693 59.583 71.6032 59.252 72.0282 59.136C72.4542 59.018 72.9083 59.137 73.2253 59.444L78.9132 64.949L69.0002 38.231L60.4582 40.797Z" fill="black"/>
<path d="M36.5293 23.797C36.5293 21.982 40.7533 20.746 41.2013 19.072C41.6643 17.34 38.6383 14.161 39.5153 12.644C40.4053 11.106 44.6792 12.144 45.9272 10.896C47.1752 9.64803 46.1373 5.37404 47.6753 4.48404C49.1913 3.60704 52.3703 6.63304 54.1023 6.17004C55.7763 5.72304 57.0123 1.49902 58.8273 1.49902C60.6423 1.49902 61.8782 5.72304 63.5522 6.17004C65.2842 6.63304 68.4633 3.60704 69.9803 4.48404C71.5183 5.37404 70.4803 9.64803 71.7283 10.896C72.9763 12.144 77.2503 11.106 78.1403 12.644C79.0173 14.16 75.9913 17.339 76.4543 19.071C76.9013 20.745 81.1252 21.981 81.1252 23.796C81.1252 25.611 76.9012 26.847 76.4532 28.521C75.9902 30.253 79.0163 33.432 78.1393 34.949C77.2493 36.487 72.9753 35.449 71.7263 36.697C70.4783 37.945 71.5163 42.22 69.9783 43.109C68.4623 43.986 65.2833 40.96 63.5513 41.423C61.8773 41.87 60.6413 46.095 58.8263 46.095C57.0113 46.095 55.7753 41.871 54.1013 41.423C52.3693 40.96 49.1903 43.986 47.6733 43.109C46.1353 42.219 47.1733 37.945 45.9253 36.696C44.6773 35.448 40.4032 36.486 39.5132 34.948C38.6362 33.432 41.6623 30.253 41.1993 28.521C40.7533 26.848 36.5293 25.612 36.5293 23.797Z" fill="#6A9B31"/>
<path d="M58.8273 47.595C57.0543 47.595 55.9683 45.966 55.0103 44.528C54.6313 43.96 53.9963 43.008 53.6873 42.863C53.2853 42.875 52.3463 43.337 51.6613 43.675C50.5663 44.213 49.4353 44.771 48.3333 44.771C47.8133 44.771 47.3403 44.649 46.9253 44.409C45.4163 43.536 45.2913 41.603 45.1813 39.897C45.1363 39.197 45.0603 38.025 44.8533 37.742C44.6013 37.566 43.4292 37.49 42.7292 37.445C41.0242 37.335 39.0903 37.21 38.2173 35.701C37.3543 34.209 38.2023 32.486 38.9513 30.965C39.2663 30.323 39.7962 29.249 39.7502 28.895C39.6182 28.63 38.6663 27.995 38.0983 27.616C36.6603 26.658 35.0312 25.571 35.0312 23.798C35.0312 22.025 36.6613 20.938 38.0983 19.98C38.6663 19.601 39.6182 18.966 39.7632 18.657C39.7962 18.347 39.2673 17.273 38.9513 16.631C38.2023 15.111 37.3543 13.387 38.2173 11.895C39.0903 10.386 41.0242 10.261 42.7292 10.151C43.4302 10.106 44.6023 10.03 44.8853 9.82199C45.0613 9.57099 45.1373 8.399 45.1823 7.698C45.2923 5.992 45.4173 4.059 46.9263 3.186C47.3413 2.946 47.8153 2.82401 48.3333 2.82401C49.4363 2.82401 50.5663 3.38101 51.6613 3.92001C52.3463 4.25801 53.2853 4.72 53.7093 4.72C53.9973 4.587 54.6323 3.63502 55.0113 3.06702C55.9693 1.62902 57.0562 0 58.8282 0C60.6012 0 61.6872 1.62902 62.6462 3.06702C63.0252 3.63502 63.6603 4.58702 63.9693 4.73102C64.3713 4.71902 65.3103 4.25701 65.9953 3.92001C67.0893 3.38101 68.2212 2.82401 69.3232 2.82401C69.8432 2.82401 70.3163 2.946 70.7313 3.186C72.2403 4.059 72.3653 5.99199 72.4753 7.69699C72.5203 8.39699 72.5963 9.57 72.8033 9.853C73.0553 10.029 74.2272 10.105 74.9272 10.15C76.6322 10.26 78.5663 10.385 79.4393 11.894C80.3013 13.386 79.4543 15.109 78.7053 16.63C78.3903 17.272 77.8602 18.346 77.9062 18.7C78.0382 18.966 78.9903 19.6 79.5583 19.979C80.9963 20.937 82.6252 22.023 82.6252 23.797C82.6252 25.57 80.9953 26.656 79.5583 27.615C78.9903 27.994 78.0372 28.628 77.8932 28.938C77.8602 29.249 78.3893 30.323 78.7053 30.965C79.4543 32.486 80.3023 34.209 79.4393 35.701C78.5653 37.21 76.6323 37.335 74.9263 37.445C74.2263 37.49 73.0542 37.566 72.7712 37.773C72.5952 38.025 72.5192 39.197 72.4742 39.897C72.3642 41.603 72.2393 43.536 70.7303 44.409C70.3153 44.649 69.8412 44.771 69.3232 44.771C68.2202 44.771 67.0893 44.214 65.9943 43.675C65.3093 43.338 64.3703 42.876 63.9463 42.876C63.6583 43.009 63.0243 43.96 62.6453 44.528C61.6863 45.966 60.6003 47.595 58.8273 47.595ZM53.7073 39.875C53.9803 39.875 54.2423 39.908 54.4893 39.974C55.8143 40.329 56.6742 41.617 57.5052 42.864C57.8502 43.382 58.4693 44.31 58.8263 44.559C59.1833 44.31 59.8033 43.381 60.1483 42.863C60.9783 41.617 61.8383 40.329 63.1633 39.974C63.4103 39.908 63.6733 39.875 63.9453 39.875C65.0673 39.875 66.2123 40.438 67.3183 40.983C67.9363 41.287 68.7623 41.694 69.2083 41.761C69.3733 41.352 69.4403 40.337 69.4813 39.703C69.5793 38.189 69.6793 36.623 70.6663 35.637C71.6523 34.65 73.2183 34.549 74.7323 34.451C75.3673 34.41 76.3863 34.344 76.7943 34.178C76.7313 33.747 76.2882 32.85 76.0132 32.29C75.3382 30.918 74.6403 29.499 75.0043 28.135C75.3583 26.809 76.6483 25.95 77.8943 25.119C78.4123 24.774 79.3403 24.155 79.5893 23.798C79.3413 23.441 78.4113 22.821 77.8943 22.476C76.6483 21.645 75.3593 20.786 75.0043 19.46C74.6403 18.095 75.3382 16.677 76.0132 15.305C76.2882 14.745 76.7313 13.847 76.7943 13.417C76.3873 13.25 75.3683 13.185 74.7343 13.144C73.2193 13.046 71.6543 12.945 70.6683 11.958C69.6813 10.971 69.5793 9.40499 69.4813 7.89099C69.4403 7.25899 69.3743 6.246 69.2103 5.836C68.7513 5.907 67.9333 6.31 67.3193 6.612C66.2123 7.156 65.0693 7.71899 63.9473 7.71899C63.6743 7.71899 63.4123 7.686 63.1653 7.62C61.8403 7.266 60.9803 5.97702 60.1493 4.73102C59.8043 4.21302 59.1843 3.284 58.8273 3.035C58.4703 3.284 57.8503 4.21301 57.5063 4.73001C56.6753 5.97601 55.8163 7.265 54.4903 7.62C54.2433 7.686 53.9803 7.71899 53.7083 7.71899C52.5863 7.71899 51.4413 7.15599 50.3353 6.61099C49.7183 6.30699 48.8923 5.90101 48.4463 5.83301C48.2813 6.24201 48.2153 7.25699 48.1753 7.89099C48.0763 9.40499 47.9763 10.971 46.9893 11.957C46.0023 12.944 44.4363 13.045 42.9233 13.143C42.2873 13.184 41.2693 13.25 40.8613 13.416C40.9243 13.846 41.3673 14.744 41.6423 15.304C42.3173 16.676 43.0152 18.094 42.6512 19.459C42.2962 20.785 41.0083 21.644 39.7613 22.475C39.2433 22.82 38.3142 23.44 38.0652 23.797C38.3142 24.154 39.2443 24.774 39.7613 25.119C41.0073 25.95 42.2952 26.808 42.6512 28.134C43.0152 29.5 42.3173 30.918 41.6423 32.289C41.3663 32.849 40.9243 33.747 40.8613 34.177C41.2673 34.344 42.2873 34.409 42.9213 34.45C44.4363 34.548 46.0012 34.649 46.9872 35.636C47.9742 36.623 48.0753 38.188 48.1733 39.702C48.2143 40.334 48.2803 41.348 48.4443 41.758C48.9043 41.687 49.7223 41.284 50.3353 40.983C51.4413 40.438 52.5853 39.875 53.7073 39.875Z" fill="black"/>
<path d="M58.8273 37.6391C66.4721 37.6391 72.6693 31.4418 72.6693 23.7971C72.6693 16.1523 66.4721 9.95508 58.8273 9.95508C51.1826 9.95508 44.9854 16.1523 44.9854 23.7971C44.9854 31.4418 51.1826 37.6391 58.8273 37.6391Z" fill="#DEF4C4"/>
<path d="M58.8273 38.8881C50.5063 38.8881 43.7363 32.1181 43.7363 23.7971C43.7363 15.4751 50.5063 8.70508 58.8273 8.70508C67.1483 8.70508 73.9193 15.4751 73.9193 23.7971C73.9183 32.1181 67.1483 38.8881 58.8273 38.8881ZM58.8273 11.2051C51.8853 11.2051 46.2363 16.8531 46.2363 23.7971C46.2363 30.7401 51.8843 36.3881 58.8273 36.3881C65.7703 36.3881 71.4193 30.7401 71.4193 23.7971C71.4183 16.8541 65.7703 11.2051 58.8273 11.2051Z" fill="black"/>
<path d="M61.6 19.1455H68C68.5304 19.1455 69.0391 19.3214 69.4142 19.6345C69.7893 19.9477 70 20.3724 70 20.8153V22.5727C70 22.7898 69.949 23.0069 69.85 23.2081L66.755 29.4824C66.6797 29.6355 66.5515 29.7665 66.3868 29.8586C66.2221 29.9508 66.0283 30 65.83 30H49C48.7348 30 48.4804 29.912 48.2929 29.7555C48.1054 29.5989 48 29.3865 48 29.1651V20.8153C48 20.5938 48.1054 20.3815 48.2929 20.2249C48.4804 20.0683 48.7348 19.9804 49 19.9804H52.482C52.6422 19.9803 52.8 19.9481 52.9422 19.8865C53.0844 19.8249 53.2067 19.7357 53.299 19.6264L58.752 13.1768C58.8209 13.0952 58.9226 13.037 59.0385 13.0126C59.1545 12.9883 59.277 12.9994 59.384 13.044L61.198 13.8021C61.7083 14.0151 62.116 14.3674 62.3534 14.8006C62.5908 15.2337 62.6436 15.7216 62.503 16.1832L61.6 19.1455ZM54 21.3062V28.3294H65.16L68 22.5727V20.8153H61.6C61.2954 20.8152 60.9948 20.7571 60.7212 20.6453C60.4476 20.5336 60.2082 20.3711 60.0213 20.1703C59.8343 19.9695 59.7048 19.7357 59.6425 19.4868C59.5803 19.2379 59.5869 18.9803 59.662 18.7339L60.565 15.7716C60.593 15.6794 60.5824 15.5819 60.5349 15.4953C60.4875 15.4087 60.406 15.3383 60.304 15.2957L59.643 15.0194L54.933 20.5898C54.683 20.8854 54.363 21.1284 54 21.3062ZM52 21.6502H50V28.3294H52V21.6502Z" fill="black"/>
</svg>
