<svg width="200" height="200" viewBox="0 0 200 200" fill="none" xmlns="http://www.w3.org/2000/svg">
<path opacity="0.8" d="M100 106.254C103.454 106.254 106.254 103.454 106.254 100C106.254 96.5459 103.454 93.7458 100 93.7458C96.5459 93.7458 93.7458 96.5459 93.7458 100C93.7458 103.454 96.5459 106.254 100 106.254Z" stroke="black" stroke-width="8" stroke-linecap="round" stroke-linejoin="round"/>
<path d="M100 134.967C119.312 134.967 134.967 119.312 134.967 100C134.967 80.6884 119.312 65.0333 100 65.0333C80.6886 65.0333 65.0334 80.6884 65.0334 100C65.0334 119.312 80.6886 134.967 100 134.967Z" stroke="black" stroke-width="8" stroke-linecap="round" stroke-linejoin="round"/>
<path d="M100 158.058C137.083 158.058 181.25 123.975 181.25 100C181.25 76.025 137.083 41.9417 100 41.9417M100 158.058C62.9167 158.058 18.75 123.975 18.75 100C18.75 76.025 62.9167 41.9417 100 41.9417" stroke="black" stroke-width="8" stroke-linecap="round" stroke-linejoin="round"/>
</svg>
